<svg xmlns="http://www.w3.org/2000/svg" xmlns:xlink="http://www.w3.org/1999/xlink" width="1366" zoomAndPan="magnify" viewBox="0 0 1024.5 576" height="768" preserveAspectRatio="xMidYMid meet" version="1.0"><defs><clipPath id="b8db1dc1f8"><path d="M 884 559 L 901 559 L 901 575.859375 L 884 575.859375 Z M 884 559 " clip-rule="nonzero"/></clipPath><clipPath id="ff115d6589"><path d="M 546 47 L 1024 47 L 1024 249 L 546 249 Z M 546 47 " clip-rule="nonzero"/></clipPath><clipPath id="264e173290"><path d="M 723 70 L 1024 70 L 1024 382 L 723 382 Z M 723 70 " clip-rule="nonzero"/></clipPath><clipPath id="dc74a7a017"><path d="M 595 21 L 1024 21 L 1024 191 L 595 191 Z M 595 21 " clip-rule="nonzero"/></clipPath><clipPath id="f2ef60f95f"><path d="M 367 0.140625 L 852 0.140625 L 852 115 L 367 115 Z M 367 0.140625 " clip-rule="nonzero"/></clipPath><clipPath id="d875c99c2a"><path d="M 434 0.140625 L 811 0.140625 L 811 73 L 434 73 Z M 434 0.140625 " clip-rule="nonzero"/></clipPath><clipPath id="6f9a459819"><path d="M 909 94 L 1024 94 L 1024 447 L 909 447 Z M 909 94 " clip-rule="nonzero"/></clipPath><clipPath id="e03a5f59a1"><path d="M 359.25 78 L 376 78 L 376 95 L 359.25 95 Z M 359.25 78 " clip-rule="nonzero"/></clipPath></defs><g clip-path="url(#b8db1dc1f8)"><path fill="#3891f6" d="M 884.78125 567.835938 C 884.78125 568.367188 884.835938 568.894531 884.9375 569.414062 C 885.042969 569.9375 885.195312 570.441406 885.398438 570.933594 C 885.601562 571.425781 885.851562 571.890625 886.148438 572.332031 C 886.441406 572.773438 886.777344 573.183594 887.152344 573.558594 C 887.53125 573.933594 887.9375 574.269531 888.382812 574.566406 C 888.824219 574.863281 889.289062 575.109375 889.78125 575.3125 C 890.273438 575.515625 890.777344 575.671875 891.300781 575.773438 C 891.820312 575.878906 892.347656 575.929688 892.878906 575.929688 C 893.410156 575.929688 893.9375 575.878906 894.460938 575.773438 C 894.980469 575.671875 895.488281 575.515625 895.980469 575.3125 C 896.46875 575.109375 896.9375 574.859375 897.378906 574.566406 C 897.820312 574.269531 898.230469 573.933594 898.605469 573.558594 C 898.980469 573.183594 899.316406 572.773438 899.613281 572.332031 C 899.90625 571.890625 900.15625 571.425781 900.359375 570.933594 C 900.5625 570.441406 900.71875 569.9375 900.820312 569.414062 C 900.925781 568.894531 900.976562 568.367188 900.976562 567.835938 C 900.976562 567.304688 900.925781 566.777344 900.820312 566.257812 C 900.71875 565.738281 900.5625 565.230469 900.359375 564.738281 C 900.15625 564.25 899.90625 563.78125 899.613281 563.339844 C 899.316406 562.898438 898.980469 562.488281 898.605469 562.113281 C 898.230469 561.738281 897.820312 561.402344 897.378906 561.105469 C 896.9375 560.8125 896.46875 560.5625 895.980469 560.359375 C 895.488281 560.15625 894.980469 560.003906 894.460938 559.898438 C 893.9375 559.796875 893.410156 559.742188 892.878906 559.742188 C 892.347656 559.742188 891.820312 559.796875 891.300781 559.898438 C 890.777344 560.003906 890.273438 560.15625 889.78125 560.359375 C 889.289062 560.5625 888.824219 560.8125 888.382812 561.105469 C 887.9375 561.402344 887.53125 561.738281 887.152344 562.113281 C 886.777344 562.488281 886.441406 562.898438 886.148438 563.339844 C 885.851562 563.78125 885.601562 564.25 885.398438 564.738281 C 885.195312 565.230469 885.042969 565.738281 884.9375 566.257812 C 884.835938 566.777344 884.78125 567.304688 884.78125 567.835938 Z M 884.78125 567.835938 " fill-opacity="1" fill-rule="nonzero"/></g><g clip-path="url(#ff115d6589)"><path fill="#f59122" d="M 546.574219 248.503906 L 632.605469 248.503906 L 655.886719 224.222656 L 773.335938 224.222656 L 863.742188 131.796875 L 863.742188 77.238281 L 891.722656 52.164062 L 1024.5 52.164062 L 1024.5 47.648438 L 889.988281 47.648438 L 859.226562 75.214844 L 859.226562 129.957031 L 771.417969 219.707031 L 653.933594 219.707031 L 630.65625 243.988281 L 546.574219 243.988281 Z M 546.574219 248.503906 " fill-opacity="1" fill-rule="nonzero"/></g><g clip-path="url(#264e173290)"><path fill="#3891f6" d="M 724.460938 381.542969 L 782.445312 325.285156 L 782.445312 251.71875 L 893.820312 141.410156 L 893.820312 89.8125 L 913.484375 72.144531 L 1024.5 72.144531 L 1024.5 70.195312 L 912.761719 70.195312 L 891.902344 88.945312 L 891.902344 140.578125 L 780.527344 250.925781 L 780.527344 324.488281 L 723.089844 380.167969 Z M 724.460938 381.542969 " fill-opacity="1" fill-rule="nonzero"/></g><g clip-path="url(#dc74a7a017)"><path fill="#3891f6" d="M 595.191406 190.546875 L 762.636719 190.546875 L 830.054688 123.199219 L 830.054688 61.449219 L 865.949219 23.546875 L 1024.5 23.546875 L 1024.5 21.632812 L 865.117188 21.632812 L 828.101562 60.65625 L 828.101562 122.367188 L 761.839844 188.597656 L 595.191406 188.597656 Z M 595.191406 190.546875 " fill-opacity="1" fill-rule="nonzero"/></g><g clip-path="url(#f2ef60f95f)"><path fill="#3891f6" d="M 648.441406 114.636719 L 758.585938 114.636719 L 803.738281 71.566406 L 803.738281 50.320312 L 851.019531 1.722656 L 849.644531 0.351562 L 801.785156 49.527344 L 801.785156 70.734375 L 757.792969 112.71875 L 649.234375 112.71875 L 621.90625 86.378906 L 367.347656 85.367188 L 367.347656 87.320312 L 621.113281 88.332031 Z M 648.441406 114.636719 " fill-opacity="1" fill-rule="nonzero"/></g><g clip-path="url(#d875c99c2a)"><path fill="#3891f6" d="M 676.78125 72.144531 L 743.441406 72.144531 L 810.53125 1.6875 L 809.121094 0.351562 L 742.609375 70.195312 L 677.578125 70.195312 L 642.152344 35.144531 L 434.183594 35.144531 L 434.183594 37.0625 L 641.355469 37.0625 Z M 676.78125 72.144531 " fill-opacity="1" fill-rule="nonzero"/></g><g clip-path="url(#6f9a459819)"><path fill="#3891f6" d="M 909.109375 446.652344 L 911.0625 446.652344 L 911.0625 381.253906 L 966.730469 320.515625 L 966.730469 189.175781 L 923.207031 147.660156 L 923.207031 106.507812 L 933.765625 96.425781 L 1024.5 96.425781 L 1024.5 94.472656 L 932.96875 94.472656 L 921.257812 105.675781 L 921.257812 148.492188 L 964.816406 190.007812 L 964.816406 319.753906 L 909.109375 380.492188 Z M 909.109375 446.652344 " fill-opacity="1" fill-rule="nonzero"/></g><path fill="#3891f6" d="M 887.855469 478.011719 L 889.769531 478.011719 L 889.769531 367.089844 L 944.464844 309.386719 L 944.464844 202.292969 L 910.738281 171.652344 L 909.4375 173.097656 L 942.511719 203.160156 L 942.511719 308.628906 L 887.855469 366.292969 Z M 887.855469 478.011719 " fill-opacity="1" fill-rule="nonzero"/><path fill="#3891f6" d="M 797.339844 549.554688 L 870.539062 478.410156 L 870.539062 356.972656 L 924.222656 304.363281 L 924.222656 218.910156 L 922.269531 218.910156 L 922.269531 303.53125 L 868.625 356.175781 L 868.625 477.617188 L 796 548.179688 Z M 797.339844 549.554688 " fill-opacity="1" fill-rule="nonzero"/><path fill="#3891f6" d="M 939.113281 553.347656 L 1002.449219 491.597656 L 1002.449219 355.671875 L 986.46875 339.738281 L 986.46875 198.171875 L 984.554688 198.171875 L 984.554688 340.53125 L 1000.496094 356.464844 L 1000.496094 490.769531 L 937.742188 551.976562 Z M 939.113281 553.347656 " fill-opacity="1" fill-rule="nonzero"/><path fill="#3891f6" d="M 893.566406 568.523438 L 985.746094 474.871094 L 981.914062 375.398438 L 980 375.472656 L 983.757812 474.109375 L 892.15625 567.148438 Z M 893.566406 568.523438 " fill-opacity="1" fill-rule="nonzero"/><path fill="#3891f6" d="M 930.332031 552.660156 C 930.332031 553.191406 930.382812 553.71875 930.484375 554.242188 C 930.589844 554.761719 930.742188 555.265625 930.945312 555.757812 C 931.148438 556.25 931.398438 556.714844 931.695312 557.15625 C 931.992188 557.601562 932.324219 558.007812 932.703125 558.382812 C 933.078125 558.761719 933.488281 559.09375 933.929688 559.390625 C 934.371094 559.6875 934.835938 559.933594 935.328125 560.140625 C 935.820312 560.34375 936.328125 560.496094 936.847656 560.597656 C 937.371094 560.703125 937.894531 560.753906 938.425781 560.753906 C 938.960938 560.753906 939.484375 560.703125 940.007812 560.597656 C 940.527344 560.496094 941.035156 560.34375 941.527344 560.140625 C 942.019531 559.933594 942.484375 559.6875 942.925781 559.390625 C 943.367188 559.09375 943.777344 558.761719 944.152344 558.382812 C 944.53125 558.007812 944.863281 557.601562 945.160156 557.15625 C 945.457031 556.714844 945.707031 556.25 945.910156 555.757812 C 946.113281 555.265625 946.265625 554.761719 946.371094 554.242188 C 946.472656 553.71875 946.523438 553.191406 946.523438 552.660156 C 946.523438 552.128906 946.472656 551.605469 946.371094 551.082031 C 946.265625 550.5625 946.113281 550.054688 945.910156 549.5625 C 945.707031 549.074219 945.457031 548.605469 945.160156 548.164062 C 944.863281 547.722656 944.53125 547.3125 944.152344 546.9375 C 943.777344 546.5625 943.367188 546.226562 942.925781 545.933594 C 942.484375 545.636719 942.019531 545.386719 941.527344 545.183594 C 941.035156 544.980469 940.527344 544.828125 940.007812 544.722656 C 939.484375 544.621094 938.960938 544.566406 938.425781 544.566406 C 937.894531 544.566406 937.371094 544.621094 936.847656 544.722656 C 936.328125 544.828125 935.820312 544.980469 935.328125 545.183594 C 934.835938 545.386719 934.371094 545.636719 933.929688 545.933594 C 933.488281 546.226562 933.078125 546.5625 932.703125 546.9375 C 932.324219 547.3125 931.992188 547.722656 931.695312 548.164062 C 931.398438 548.605469 931.148438 549.074219 930.945312 549.5625 C 930.742188 550.054688 930.589844 550.5625 930.484375 551.082031 C 930.382812 551.605469 930.332031 552.128906 930.332031 552.660156 Z M 930.332031 552.660156 " fill-opacity="1" fill-rule="nonzero"/><path fill="#3891f6" d="M 786.566406 548.867188 C 786.566406 549.398438 786.617188 549.925781 786.722656 550.445312 C 786.824219 550.96875 786.980469 551.472656 787.183594 551.964844 C 787.386719 552.457031 787.636719 552.921875 787.929688 553.363281 C 788.226562 553.804688 788.5625 554.214844 788.9375 554.589844 C 789.3125 554.964844 789.722656 555.300781 790.164062 555.597656 C 790.605469 555.890625 791.074219 556.140625 791.566406 556.34375 C 792.054688 556.546875 792.5625 556.703125 793.082031 556.804688 C 793.605469 556.910156 794.132812 556.960938 794.664062 556.960938 C 795.195312 556.960938 795.722656 556.910156 796.242188 556.804688 C 796.765625 556.703125 797.269531 556.546875 797.761719 556.34375 C 798.253906 556.140625 798.71875 555.890625 799.160156 555.597656 C 799.605469 555.300781 800.011719 554.964844 800.390625 554.589844 C 800.765625 554.214844 801.101562 553.804688 801.394531 553.363281 C 801.691406 552.921875 801.941406 552.457031 802.144531 551.964844 C 802.347656 551.472656 802.5 550.96875 802.605469 550.445312 C 802.707031 549.925781 802.761719 549.398438 802.761719 548.867188 C 802.761719 548.335938 802.707031 547.808594 802.605469 547.289062 C 802.5 546.765625 802.347656 546.261719 802.144531 545.769531 C 801.941406 545.277344 801.691406 544.8125 801.394531 544.371094 C 801.101562 543.929688 800.765625 543.519531 800.390625 543.144531 C 800.011719 542.769531 799.605469 542.433594 799.160156 542.136719 C 798.71875 541.84375 798.253906 541.59375 797.761719 541.390625 C 797.269531 541.1875 796.765625 541.03125 796.242188 540.929688 C 795.722656 540.824219 795.195312 540.773438 794.664062 540.773438 C 794.132812 540.773438 793.605469 540.824219 793.082031 540.929688 C 792.5625 541.03125 792.054688 541.1875 791.566406 541.390625 C 791.074219 541.59375 790.605469 541.84375 790.164062 542.136719 C 789.722656 542.433594 789.3125 542.769531 788.9375 543.144531 C 788.5625 543.519531 788.226562 543.929688 787.929688 544.371094 C 787.636719 544.8125 787.386719 545.277344 787.183594 545.769531 C 786.980469 546.261719 786.824219 546.765625 786.722656 547.289062 C 786.617188 547.808594 786.566406 548.335938 786.566406 548.867188 Z M 786.566406 548.867188 " fill-opacity="1" fill-rule="nonzero"/><path fill="#3891f6" d="M 751.609375 512.410156 C 751.609375 512.941406 751.660156 513.46875 751.765625 513.988281 C 751.867188 514.511719 752.023438 515.015625 752.226562 515.507812 C 752.429688 516 752.679688 516.464844 752.972656 516.90625 C 753.269531 517.347656 753.605469 517.757812 753.980469 518.132812 C 754.355469 518.507812 754.765625 518.84375 755.207031 519.140625 C 755.652344 519.433594 756.117188 519.683594 756.609375 519.886719 C 757.097656 520.089844 757.605469 520.246094 758.128906 520.347656 C 758.648438 520.453125 759.175781 520.503906 759.707031 520.503906 C 760.238281 520.503906 760.765625 520.453125 761.285156 520.347656 C 761.808594 520.246094 762.316406 520.089844 762.804688 519.886719 C 763.296875 519.683594 763.765625 519.433594 764.207031 519.140625 C 764.648438 518.84375 765.058594 518.507812 765.433594 518.132812 C 765.808594 517.757812 766.144531 517.347656 766.441406 516.90625 C 766.734375 516.464844 766.984375 516 767.1875 515.507812 C 767.390625 515.015625 767.546875 514.511719 767.648438 513.988281 C 767.753906 513.46875 767.804688 512.941406 767.804688 512.410156 C 767.804688 511.878906 767.753906 511.351562 767.648438 510.832031 C 767.546875 510.308594 767.390625 509.804688 767.1875 509.3125 C 766.984375 508.820312 766.734375 508.355469 766.441406 507.914062 C 766.144531 507.472656 765.808594 507.0625 765.433594 506.6875 C 765.058594 506.3125 764.648438 505.976562 764.207031 505.679688 C 763.765625 505.386719 763.296875 505.136719 762.804688 504.933594 C 762.316406 504.730469 761.808594 504.578125 761.285156 504.472656 C 760.765625 504.367188 760.238281 504.316406 759.707031 504.316406 C 759.175781 504.316406 758.648438 504.367188 758.128906 504.472656 C 757.605469 504.578125 757.097656 504.730469 756.609375 504.933594 C 756.117188 505.136719 755.652344 505.386719 755.207031 505.679688 C 754.765625 505.976562 754.355469 506.3125 753.980469 506.6875 C 753.605469 507.0625 753.269531 507.472656 752.972656 507.914062 C 752.679688 508.355469 752.429688 508.824219 752.226562 509.3125 C 752.023438 509.804688 751.867188 510.308594 751.765625 510.832031 C 751.660156 511.351562 751.609375 511.878906 751.609375 512.410156 Z M 751.609375 512.410156 " fill-opacity="1" fill-rule="nonzero"/><path fill="#3891f6" d="M 880.734375 478.011719 C 880.734375 478.542969 880.785156 479.070312 880.890625 479.59375 C 880.992188 480.113281 881.148438 480.621094 881.351562 481.109375 C 881.554688 481.601562 881.804688 482.066406 882.097656 482.507812 C 882.394531 482.953125 882.730469 483.359375 883.105469 483.734375 C 883.480469 484.113281 883.890625 484.449219 884.332031 484.742188 C 884.773438 485.039062 885.242188 485.289062 885.734375 485.492188 C 886.222656 485.695312 886.730469 485.847656 887.25 485.949219 C 887.773438 486.054688 888.300781 486.105469 888.832031 486.105469 C 889.363281 486.105469 889.890625 486.054688 890.410156 485.949219 C 890.933594 485.847656 891.4375 485.695312 891.929688 485.492188 C 892.421875 485.289062 892.886719 485.039062 893.328125 484.742188 C 893.773438 484.449219 894.179688 484.113281 894.558594 483.734375 C 894.933594 483.359375 895.269531 482.953125 895.5625 482.507812 C 895.859375 482.066406 896.109375 481.601562 896.3125 481.109375 C 896.515625 480.621094 896.667969 480.113281 896.773438 479.59375 C 896.875 479.070312 896.929688 478.542969 896.929688 478.011719 C 896.929688 477.480469 896.875 476.957031 896.773438 476.433594 C 896.667969 475.914062 896.515625 475.40625 896.3125 474.914062 C 896.109375 474.425781 895.859375 473.957031 895.5625 473.515625 C 895.269531 473.074219 894.933594 472.664062 894.558594 472.289062 C 894.179688 471.914062 893.773438 471.578125 893.328125 471.285156 C 892.886719 470.988281 892.421875 470.738281 891.929688 470.535156 C 891.4375 470.332031 890.933594 470.179688 890.410156 470.074219 C 889.890625 469.972656 889.363281 469.917969 888.832031 469.917969 C 888.300781 469.917969 887.773438 469.972656 887.25 470.074219 C 886.730469 470.179688 886.222656 470.332031 885.734375 470.535156 C 885.242188 470.738281 884.773438 470.988281 884.332031 471.285156 C 883.890625 471.578125 883.480469 471.914062 883.105469 472.289062 C 882.730469 472.664062 882.394531 473.074219 882.097656 473.515625 C 881.804688 473.957031 881.554688 474.425781 881.351562 474.914062 C 881.148438 475.40625 880.992188 475.914062 880.890625 476.433594 C 880.785156 476.957031 880.734375 477.480469 880.734375 478.011719 Z M 880.734375 478.011719 " fill-opacity="1" fill-rule="nonzero"/><path fill="#3891f6" d="M 901.988281 446.652344 C 901.988281 447.183594 902.042969 447.707031 902.144531 448.230469 C 902.25 448.75 902.402344 449.257812 902.605469 449.746094 C 902.808594 450.238281 903.058594 450.707031 903.355469 451.148438 C 903.648438 451.589844 903.984375 451.996094 904.359375 452.375 C 904.738281 452.75 905.144531 453.085938 905.589844 453.378906 C 906.03125 453.675781 906.496094 453.925781 906.988281 454.128906 C 907.480469 454.332031 907.984375 454.484375 908.507812 454.589844 C 909.027344 454.691406 909.554688 454.746094 910.085938 454.746094 C 910.617188 454.746094 911.144531 454.691406 911.667969 454.589844 C 912.1875 454.484375 912.695312 454.332031 913.1875 454.128906 C 913.675781 453.925781 914.144531 453.675781 914.585938 453.378906 C 915.027344 453.085938 915.4375 452.75 915.8125 452.375 C 916.1875 451.996094 916.523438 451.589844 916.820312 451.148438 C 917.113281 450.707031 917.363281 450.238281 917.566406 449.746094 C 917.769531 449.257812 917.925781 448.75 918.027344 448.230469 C 918.132812 447.707031 918.183594 447.183594 918.183594 446.652344 C 918.183594 446.121094 918.132812 445.59375 918.027344 445.070312 C 917.925781 444.550781 917.769531 444.042969 917.566406 443.554688 C 917.363281 443.0625 917.113281 442.597656 916.820312 442.152344 C 916.523438 441.710938 916.1875 441.304688 915.8125 440.925781 C 915.4375 440.550781 915.027344 440.214844 914.585938 439.921875 C 914.144531 439.625 913.675781 439.375 913.1875 439.171875 C 912.695312 438.96875 912.1875 438.816406 911.667969 438.710938 C 911.144531 438.609375 910.617188 438.558594 910.085938 438.558594 C 909.554688 438.558594 909.027344 438.609375 908.507812 438.710938 C 907.984375 438.816406 907.480469 438.96875 906.988281 439.171875 C 906.496094 439.375 906.03125 439.625 905.589844 439.921875 C 905.144531 440.214844 904.738281 440.550781 904.359375 440.925781 C 903.984375 441.304688 903.648438 441.710938 903.355469 442.152344 C 903.058594 442.597656 902.808594 443.0625 902.605469 443.554688 C 902.402344 444.042969 902.25 444.550781 902.144531 445.070312 C 902.042969 445.59375 901.988281 446.121094 901.988281 446.652344 Z M 901.988281 446.652344 " fill-opacity="1" fill-rule="nonzero"/><path fill="#3891f6" d="M 915.148438 218.910156 C 915.148438 219.445312 915.199219 219.96875 915.304688 220.492188 C 915.40625 221.011719 915.5625 221.519531 915.765625 222.007812 C 915.96875 222.5 916.21875 222.964844 916.511719 223.410156 C 916.808594 223.851562 917.144531 224.257812 917.519531 224.636719 C 917.894531 225.011719 918.304688 225.347656 918.746094 225.640625 C 919.1875 225.9375 919.65625 226.1875 920.144531 226.390625 C 920.636719 226.59375 921.144531 226.746094 921.664062 226.851562 C 922.1875 226.953125 922.714844 227.003906 923.246094 227.003906 C 923.777344 227.003906 924.304688 226.953125 924.824219 226.851562 C 925.347656 226.746094 925.851562 226.59375 926.34375 226.390625 C 926.835938 226.1875 927.300781 225.9375 927.742188 225.640625 C 928.1875 225.347656 928.59375 225.011719 928.972656 224.636719 C 929.347656 224.257812 929.683594 223.851562 929.976562 223.410156 C 930.273438 222.964844 930.523438 222.5 930.726562 222.007812 C 930.929688 221.519531 931.082031 221.011719 931.1875 220.492188 C 931.289062 219.96875 931.34375 219.445312 931.34375 218.910156 C 931.34375 218.378906 931.289062 217.855469 931.1875 217.332031 C 931.082031 216.8125 930.929688 216.304688 930.726562 215.816406 C 930.523438 215.324219 930.273438 214.855469 929.976562 214.414062 C 929.683594 213.972656 929.347656 213.566406 928.972656 213.1875 C 928.59375 212.8125 928.1875 212.476562 927.742188 212.183594 C 927.300781 211.886719 926.835938 211.636719 926.34375 211.433594 C 925.851562 211.230469 925.347656 211.078125 924.824219 210.972656 C 924.304688 210.871094 923.777344 210.820312 923.246094 210.820312 C 922.714844 210.820312 922.1875 210.871094 921.664062 210.972656 C 921.144531 211.078125 920.636719 211.230469 920.144531 211.433594 C 919.65625 211.636719 919.1875 211.886719 918.746094 212.183594 C 918.304688 212.476562 917.894531 212.8125 917.519531 213.1875 C 917.144531 213.566406 916.808594 213.972656 916.511719 214.414062 C 916.21875 214.855469 915.96875 215.324219 915.765625 215.816406 C 915.5625 216.304688 915.40625 216.8125 915.304688 217.332031 C 915.199219 217.855469 915.148438 218.378906 915.148438 218.910156 Z M 915.148438 218.910156 " fill-opacity="1" fill-rule="nonzero"/><path fill="#3891f6" d="M 851.851562 233.113281 C 851.851562 233.644531 851.902344 234.167969 852.007812 234.691406 C 852.109375 235.210938 852.265625 235.71875 852.46875 236.207031 C 852.671875 236.699219 852.921875 237.167969 853.214844 237.609375 C 853.511719 238.050781 853.847656 238.457031 854.222656 238.835938 C 854.597656 239.210938 855.007812 239.546875 855.449219 239.839844 C 855.890625 240.136719 856.359375 240.386719 856.847656 240.589844 C 857.339844 240.792969 857.847656 240.945312 858.367188 241.050781 C 858.890625 241.152344 859.417969 241.207031 859.949219 241.207031 C 860.480469 241.207031 861.007812 241.152344 861.527344 241.050781 C 862.050781 240.945312 862.554688 240.792969 863.046875 240.589844 C 863.539062 240.386719 864.003906 240.136719 864.445312 239.839844 C 864.890625 239.546875 865.296875 239.210938 865.675781 238.835938 C 866.050781 238.457031 866.386719 238.050781 866.679688 237.609375 C 866.976562 237.167969 867.226562 236.699219 867.429688 236.207031 C 867.632812 235.71875 867.785156 235.210938 867.890625 234.691406 C 867.992188 234.167969 868.046875 233.644531 868.046875 233.113281 C 868.046875 232.582031 867.992188 232.054688 867.890625 231.53125 C 867.785156 231.011719 867.632812 230.503906 867.429688 230.015625 C 867.226562 229.523438 866.976562 229.058594 866.679688 228.613281 C 866.386719 228.171875 866.050781 227.765625 865.675781 227.390625 C 865.296875 227.011719 864.890625 226.675781 864.445312 226.382812 C 864.003906 226.085938 863.539062 225.835938 863.046875 225.632812 C 862.554688 225.429688 862.050781 225.277344 861.527344 225.171875 C 861.007812 225.070312 860.480469 225.019531 859.949219 225.019531 C 859.417969 225.019531 858.890625 225.070312 858.367188 225.171875 C 857.847656 225.277344 857.339844 225.429688 856.847656 225.632812 C 856.359375 225.835938 855.890625 226.085938 855.449219 226.382812 C 855.007812 226.675781 854.597656 227.011719 854.222656 227.390625 C 853.847656 227.765625 853.511719 228.171875 853.214844 228.613281 C 852.921875 229.058594 852.671875 229.523438 852.46875 230.015625 C 852.265625 230.503906 852.109375 231.011719 852.007812 231.53125 C 851.902344 232.054688 851.851562 232.582031 851.851562 233.113281 Z M 851.851562 233.113281 " fill-opacity="1" fill-rule="nonzero"/><path fill="#3891f6" d="M 901.988281 172.375 C 901.988281 172.90625 902.042969 173.433594 902.144531 173.953125 C 902.25 174.472656 902.402344 174.980469 902.605469 175.472656 C 902.808594 175.960938 903.058594 176.429688 903.355469 176.871094 C 903.648438 177.3125 903.984375 177.722656 904.359375 178.097656 C 904.738281 178.472656 905.144531 178.808594 905.589844 179.105469 C 906.03125 179.398438 906.496094 179.648438 906.988281 179.851562 C 907.480469 180.054688 907.984375 180.207031 908.507812 180.3125 C 909.027344 180.414062 909.554688 180.46875 910.085938 180.46875 C 910.617188 180.46875 911.144531 180.414062 911.667969 180.3125 C 912.1875 180.207031 912.695312 180.054688 913.1875 179.851562 C 913.675781 179.648438 914.144531 179.398438 914.585938 179.105469 C 915.027344 178.808594 915.4375 178.472656 915.8125 178.097656 C 916.1875 177.722656 916.523438 177.3125 916.820312 176.871094 C 917.113281 176.429688 917.363281 175.960938 917.566406 175.472656 C 917.769531 174.980469 917.925781 174.472656 918.027344 173.953125 C 918.132812 173.433594 918.183594 172.90625 918.183594 172.375 C 918.183594 171.84375 918.132812 171.316406 918.027344 170.796875 C 917.925781 170.273438 917.769531 169.769531 917.566406 169.277344 C 917.363281 168.785156 917.113281 168.320312 916.820312 167.878906 C 916.523438 167.4375 916.1875 167.027344 915.8125 166.652344 C 915.4375 166.277344 915.027344 165.941406 914.585938 165.644531 C 914.144531 165.347656 913.675781 165.101562 913.1875 164.898438 C 912.695312 164.691406 912.1875 164.539062 911.667969 164.4375 C 911.144531 164.332031 910.617188 164.28125 910.085938 164.28125 C 909.554688 164.28125 909.027344 164.332031 908.507812 164.4375 C 907.984375 164.539062 907.480469 164.691406 906.988281 164.898438 C 906.496094 165.101562 906.03125 165.347656 905.589844 165.644531 C 905.144531 165.941406 904.738281 166.277344 904.359375 166.652344 C 903.984375 167.027344 903.648438 167.4375 903.355469 167.878906 C 903.058594 168.320312 902.808594 168.785156 902.605469 169.277344 C 902.402344 169.769531 902.25 170.273438 902.144531 170.796875 C 902.042969 171.316406 901.988281 171.84375 901.988281 172.375 Z M 901.988281 172.375 " fill-opacity="1" fill-rule="nonzero"/><path fill="#3891f6" d="M 715.675781 380.855469 C 715.675781 381.386719 715.730469 381.914062 715.832031 382.433594 C 715.9375 382.953125 716.089844 383.460938 716.292969 383.953125 C 716.496094 384.441406 716.746094 384.910156 717.042969 385.351562 C 717.335938 385.792969 717.671875 386.203125 718.050781 386.578125 C 718.425781 386.953125 718.835938 387.289062 719.277344 387.585938 C 719.71875 387.878906 720.183594 388.128906 720.675781 388.332031 C 721.167969 388.535156 721.675781 388.6875 722.195312 388.792969 C 722.714844 388.894531 723.242188 388.949219 723.773438 388.949219 C 724.308594 388.949219 724.832031 388.894531 725.355469 388.792969 C 725.875 388.6875 726.382812 388.535156 726.875 388.332031 C 727.363281 388.128906 727.832031 387.878906 728.273438 387.585938 C 728.714844 387.289062 729.125 386.953125 729.5 386.578125 C 729.875 386.203125 730.210938 385.792969 730.507812 385.351562 C 730.804688 384.910156 731.050781 384.441406 731.257812 383.953125 C 731.460938 383.460938 731.613281 382.953125 731.71875 382.433594 C 731.820312 381.914062 731.871094 381.386719 731.871094 380.855469 C 731.871094 380.324219 731.820312 379.796875 731.71875 379.277344 C 731.613281 378.753906 731.460938 378.25 731.257812 377.757812 C 731.050781 377.265625 730.804688 376.800781 730.507812 376.359375 C 730.210938 375.917969 729.875 375.507812 729.5 375.132812 C 729.125 374.757812 728.714844 374.421875 728.273438 374.125 C 727.832031 373.828125 727.363281 373.582031 726.875 373.378906 C 726.382812 373.171875 725.875 373.019531 725.355469 372.917969 C 724.832031 372.8125 724.308594 372.761719 723.773438 372.761719 C 723.242188 372.761719 722.714844 372.8125 722.195312 372.917969 C 721.671875 373.019531 721.167969 373.171875 720.675781 373.378906 C 720.183594 373.582031 719.71875 373.828125 719.277344 374.125 C 718.835938 374.421875 718.425781 374.757812 718.050781 375.132812 C 717.671875 375.507812 717.335938 375.917969 717.042969 376.359375 C 716.746094 376.800781 716.496094 377.265625 716.292969 377.757812 C 716.089844 378.25 715.9375 378.753906 715.832031 379.277344 C 715.730469 379.796875 715.675781 380.324219 715.675781 380.855469 Z M 715.675781 380.855469 " fill-opacity="1" fill-rule="nonzero"/><path fill="#3891f6" d="M 538.476562 246.265625 C 538.476562 246.796875 538.527344 247.320312 538.632812 247.84375 C 538.734375 248.363281 538.886719 248.871094 539.089844 249.359375 C 539.296875 249.851562 539.542969 250.316406 539.839844 250.761719 C 540.136719 251.203125 540.472656 251.609375 540.847656 251.988281 C 541.222656 252.363281 541.632812 252.699219 542.074219 252.992188 C 542.515625 253.289062 542.984375 253.539062 543.472656 253.742188 C 543.964844 253.945312 544.472656 254.097656 544.992188 254.203125 C 545.515625 254.304688 546.039062 254.355469 546.574219 254.355469 C 547.105469 254.355469 547.632812 254.304688 548.152344 254.203125 C 548.675781 254.097656 549.179688 253.945312 549.671875 253.742188 C 550.164062 253.539062 550.628906 253.289062 551.070312 252.992188 C 551.511719 252.699219 551.921875 252.363281 552.296875 251.988281 C 552.675781 251.609375 553.011719 251.203125 553.304688 250.761719 C 553.601562 250.316406 553.851562 249.851562 554.054688 249.359375 C 554.257812 248.871094 554.410156 248.363281 554.515625 247.84375 C 554.617188 247.320312 554.671875 246.796875 554.671875 246.265625 C 554.671875 245.730469 554.617188 245.207031 554.515625 244.683594 C 554.410156 244.164062 554.257812 243.65625 554.054688 243.167969 C 553.851562 242.675781 553.601562 242.210938 553.304688 241.765625 C 553.011719 241.324219 552.675781 240.917969 552.296875 240.539062 C 551.921875 240.164062 551.511719 239.828125 551.070312 239.535156 C 550.628906 239.238281 550.164062 238.988281 549.671875 238.785156 C 549.179688 238.582031 548.675781 238.429688 548.152344 238.324219 C 547.632812 238.222656 547.105469 238.171875 546.574219 238.171875 C 546.039062 238.171875 545.515625 238.222656 544.992188 238.324219 C 544.472656 238.429688 543.964844 238.582031 543.472656 238.785156 C 542.984375 238.988281 542.515625 239.238281 542.074219 239.535156 C 541.632812 239.828125 541.222656 240.164062 540.847656 240.539062 C 540.472656 240.917969 540.136719 241.324219 539.839844 241.765625 C 539.542969 242.210938 539.296875 242.675781 539.089844 243.167969 C 538.886719 243.65625 538.734375 244.164062 538.632812 244.683594 C 538.527344 245.207031 538.476562 245.730469 538.476562 246.265625 Z M 538.476562 246.265625 " fill-opacity="1" fill-rule="nonzero"/><path fill="#3891f6" d="M 587.09375 189.574219 C 587.09375 190.105469 587.148438 190.628906 587.25 191.152344 C 587.355469 191.671875 587.507812 192.179688 587.710938 192.671875 C 587.914062 193.160156 588.164062 193.628906 588.460938 194.070312 C 588.753906 194.511719 589.089844 194.921875 589.46875 195.296875 C 589.84375 195.671875 590.253906 196.007812 590.695312 196.300781 C 591.136719 196.597656 591.601562 196.847656 592.09375 197.050781 C 592.585938 197.253906 593.09375 197.40625 593.613281 197.511719 C 594.136719 197.613281 594.660156 197.667969 595.191406 197.667969 C 595.726562 197.667969 596.25 197.613281 596.773438 197.511719 C 597.292969 197.40625 597.800781 197.253906 598.292969 197.050781 C 598.78125 196.847656 599.25 196.597656 599.691406 196.300781 C 600.132812 196.007812 600.542969 195.671875 600.917969 195.296875 C 601.292969 194.921875 601.628906 194.511719 601.925781 194.070312 C 602.222656 193.628906 602.46875 193.160156 602.675781 192.671875 C 602.878906 192.179688 603.03125 191.671875 603.136719 191.152344 C 603.238281 190.628906 603.289062 190.105469 603.289062 189.574219 C 603.289062 189.042969 603.238281 188.515625 603.136719 187.992188 C 603.03125 187.472656 602.878906 186.964844 602.675781 186.476562 C 602.46875 185.984375 602.222656 185.519531 601.925781 185.078125 C 601.628906 184.632812 601.292969 184.226562 600.917969 183.851562 C 600.542969 183.472656 600.132812 183.136719 599.691406 182.84375 C 599.25 182.546875 598.78125 182.296875 598.292969 182.09375 C 597.800781 181.890625 597.292969 181.738281 596.773438 181.636719 C 596.25 181.53125 595.726562 181.480469 595.191406 181.480469 C 594.660156 181.480469 594.136719 181.53125 593.613281 181.636719 C 593.09375 181.738281 592.585938 181.890625 592.09375 182.09375 C 591.601562 182.296875 591.136719 182.546875 590.695312 182.84375 C 590.253906 183.136719 589.84375 183.472656 589.46875 183.851562 C 589.089844 184.226562 588.753906 184.632812 588.460938 185.078125 C 588.164062 185.519531 587.914062 185.984375 587.710938 186.476562 C 587.507812 186.964844 587.355469 187.472656 587.25 187.992188 C 587.148438 188.515625 587.09375 189.042969 587.09375 189.574219 Z M 587.09375 189.574219 " fill-opacity="1" fill-rule="nonzero"/><path fill="#3891f6" d="M 801.75 106.074219 C 801.75 106.605469 801.800781 107.128906 801.902344 107.652344 C 802.007812 108.171875 802.160156 108.679688 802.363281 109.167969 C 802.566406 109.660156 802.816406 110.128906 803.113281 110.570312 C 803.410156 111.011719 803.742188 111.417969 804.121094 111.796875 C 804.496094 112.171875 804.90625 112.507812 805.347656 112.800781 C 805.789062 113.097656 806.257812 113.347656 806.746094 113.550781 C 807.238281 113.753906 807.746094 113.90625 808.265625 114.011719 C 808.789062 114.113281 809.3125 114.164062 809.847656 114.164062 C 810.378906 114.164062 810.902344 114.113281 811.425781 114.011719 C 811.945312 113.90625 812.453125 113.753906 812.945312 113.550781 C 813.4375 113.347656 813.902344 113.097656 814.34375 112.800781 C 814.785156 112.507812 815.195312 112.171875 815.570312 111.796875 C 815.949219 111.417969 816.28125 111.011719 816.578125 110.570312 C 816.875 110.128906 817.125 109.660156 817.328125 109.167969 C 817.53125 108.679688 817.683594 108.171875 817.789062 107.652344 C 817.890625 107.128906 817.941406 106.605469 817.941406 106.074219 C 817.941406 105.539062 817.890625 105.015625 817.789062 104.492188 C 817.683594 103.972656 817.53125 103.464844 817.328125 102.976562 C 817.125 102.484375 816.875 102.019531 816.578125 101.574219 C 816.28125 101.132812 815.949219 100.726562 815.570312 100.347656 C 815.195312 99.972656 814.785156 99.636719 814.34375 99.34375 C 813.902344 99.046875 813.4375 98.796875 812.945312 98.59375 C 812.453125 98.390625 811.945312 98.238281 811.425781 98.132812 C 810.902344 98.03125 810.378906 97.980469 809.847656 97.980469 C 809.3125 97.980469 808.789062 98.03125 808.265625 98.132812 C 807.746094 98.238281 807.238281 98.390625 806.746094 98.59375 C 806.253906 98.796875 805.789062 99.046875 805.347656 99.34375 C 804.90625 99.636719 804.496094 99.972656 804.121094 100.347656 C 803.742188 100.726562 803.410156 101.132812 803.113281 101.574219 C 802.816406 102.019531 802.566406 102.484375 802.363281 102.976562 C 802.160156 103.464844 802.007812 103.972656 801.902344 104.492188 C 801.800781 105.015625 801.75 105.539062 801.75 106.074219 Z M 801.75 106.074219 " fill-opacity="1" fill-rule="nonzero"/><g clip-path="url(#e03a5f59a1)"><path fill="#3891f6" d="M 359.25 86.34375 C 359.25 86.875 359.300781 87.402344 359.402344 87.921875 C 359.507812 88.445312 359.660156 88.949219 359.863281 89.441406 C 360.070312 89.933594 360.316406 90.398438 360.613281 90.839844 C 360.910156 91.28125 361.246094 91.691406 361.621094 92.066406 C 361.996094 92.441406 362.40625 92.777344 362.847656 93.074219 C 363.289062 93.367188 363.757812 93.617188 364.246094 93.820312 C 364.738281 94.023438 365.246094 94.179688 365.765625 94.28125 C 366.289062 94.386719 366.8125 94.4375 367.347656 94.4375 C 367.878906 94.4375 368.402344 94.386719 368.925781 94.28125 C 369.445312 94.179688 369.953125 94.023438 370.445312 93.820312 C 370.9375 93.617188 371.402344 93.367188 371.84375 93.074219 C 372.285156 92.777344 372.695312 92.441406 373.070312 92.066406 C 373.449219 91.691406 373.785156 91.28125 374.078125 90.839844 C 374.375 90.398438 374.625 89.933594 374.828125 89.441406 C 375.03125 88.949219 375.183594 88.445312 375.289062 87.921875 C 375.390625 87.402344 375.441406 86.875 375.441406 86.34375 C 375.441406 85.8125 375.390625 85.285156 375.289062 84.765625 C 375.183594 84.246094 375.03125 83.738281 374.828125 83.246094 C 374.625 82.757812 374.375 82.289062 374.078125 81.847656 C 373.785156 81.40625 373.449219 80.996094 373.070312 80.621094 C 372.695312 80.246094 372.285156 79.910156 371.84375 79.613281 C 371.402344 79.320312 370.9375 79.070312 370.445312 78.867188 C 369.953125 78.664062 369.445312 78.511719 368.925781 78.40625 C 368.402344 78.300781 367.878906 78.25 367.347656 78.25 C 366.8125 78.25 366.289062 78.300781 365.765625 78.40625 C 365.246094 78.511719 364.738281 78.664062 364.246094 78.867188 C 363.757812 79.070312 363.289062 79.320312 362.847656 79.613281 C 362.40625 79.910156 361.996094 80.246094 361.621094 80.621094 C 361.246094 80.996094 360.910156 81.40625 360.613281 81.847656 C 360.316406 82.289062 360.070312 82.757812 359.863281 83.246094 C 359.660156 83.738281 359.507812 84.246094 359.402344 84.765625 C 359.300781 85.285156 359.25 85.8125 359.25 86.34375 Z M 359.25 86.34375 " fill-opacity="1" fill-rule="nonzero"/></g><path fill="#3891f6" d="M 385.058594 172.375 C 385.058594 172.90625 385.109375 173.433594 385.214844 173.953125 C 385.316406 174.472656 385.472656 174.980469 385.675781 175.472656 C 385.878906 175.960938 386.128906 176.429688 386.421875 176.871094 C 386.71875 177.3125 387.054688 177.722656 387.429688 178.097656 C 387.804688 178.472656 388.214844 178.808594 388.65625 179.105469 C 389.101562 179.398438 389.566406 179.648438 390.058594 179.851562 C 390.546875 180.054688 391.054688 180.207031 391.578125 180.3125 C 392.097656 180.414062 392.625 180.46875 393.15625 180.46875 C 393.6875 180.46875 394.214844 180.414062 394.734375 180.3125 C 395.257812 180.207031 395.765625 180.054688 396.253906 179.851562 C 396.746094 179.648438 397.214844 179.398438 397.65625 179.105469 C 398.097656 178.808594 398.507812 178.472656 398.882812 178.097656 C 399.257812 177.722656 399.59375 177.3125 399.890625 176.871094 C 400.183594 176.429688 400.433594 175.960938 400.636719 175.472656 C 400.839844 174.980469 400.996094 174.472656 401.097656 173.953125 C 401.203125 173.433594 401.253906 172.90625 401.253906 172.375 C 401.253906 171.84375 401.203125 171.316406 401.097656 170.796875 C 400.996094 170.273438 400.839844 169.769531 400.636719 169.277344 C 400.433594 168.785156 400.183594 168.320312 399.890625 167.878906 C 399.59375 167.4375 399.257812 167.027344 398.882812 166.652344 C 398.507812 166.277344 398.097656 165.941406 397.65625 165.644531 C 397.214844 165.347656 396.746094 165.101562 396.253906 164.898438 C 395.765625 164.691406 395.257812 164.539062 394.734375 164.4375 C 394.214844 164.332031 393.6875 164.28125 393.15625 164.28125 C 392.625 164.28125 392.097656 164.332031 391.578125 164.4375 C 391.054688 164.539062 390.546875 164.691406 390.058594 164.898438 C 389.566406 165.101562 389.101562 165.347656 388.65625 165.644531 C 388.214844 165.941406 387.804688 166.277344 387.429688 166.652344 C 387.054688 167.027344 386.71875 167.4375 386.421875 167.878906 C 386.128906 168.320312 385.878906 168.785156 385.675781 169.277344 C 385.472656 169.769531 385.316406 170.273438 385.214844 170.796875 C 385.109375 171.316406 385.058594 171.84375 385.058594 172.375 Z M 385.058594 172.375 " fill-opacity="1" fill-rule="nonzero"/><path fill="#3891f6" d="M 426.089844 36.085938 C 426.089844 36.617188 426.140625 37.144531 426.242188 37.664062 C 426.347656 38.183594 426.5 38.691406 426.703125 39.183594 C 426.90625 39.671875 427.15625 40.140625 427.453125 40.582031 C 427.75 41.023438 428.082031 41.433594 428.460938 41.808594 C 428.835938 42.183594 429.246094 42.519531 429.6875 42.816406 C 430.128906 43.109375 430.59375 43.359375 431.085938 43.5625 C 431.578125 43.765625 432.085938 43.917969 432.605469 44.023438 C 433.128906 44.125 433.652344 44.179688 434.183594 44.179688 C 434.71875 44.179688 435.242188 44.125 435.765625 44.023438 C 436.285156 43.917969 436.792969 43.765625 437.285156 43.5625 C 437.777344 43.359375 438.242188 43.109375 438.683594 42.816406 C 439.125 42.519531 439.535156 42.183594 439.910156 41.808594 C 440.289062 41.433594 440.621094 41.023438 440.917969 40.582031 C 441.214844 40.140625 441.464844 39.671875 441.667969 39.183594 C 441.871094 38.691406 442.023438 38.183594 442.128906 37.664062 C 442.230469 37.144531 442.28125 36.617188 442.28125 36.085938 C 442.28125 35.554688 442.230469 35.027344 442.128906 34.507812 C 442.023438 33.984375 441.871094 33.480469 441.667969 32.988281 C 441.464844 32.496094 441.214844 32.03125 440.917969 31.589844 C 440.621094 31.148438 440.289062 30.738281 439.910156 30.363281 C 439.535156 29.984375 439.125 29.652344 438.683594 29.355469 C 438.242188 29.058594 437.777344 28.8125 437.285156 28.609375 C 436.792969 28.402344 436.285156 28.25 435.765625 28.148438 C 435.242188 28.042969 434.71875 27.992188 434.183594 27.992188 C 433.652344 27.992188 433.128906 28.042969 432.605469 28.148438 C 432.085938 28.25 431.578125 28.402344 431.085938 28.609375 C 430.59375 28.8125 430.128906 29.058594 429.6875 29.355469 C 429.246094 29.652344 428.835938 29.984375 428.460938 30.363281 C 428.082031 30.738281 427.75 31.148438 427.453125 31.589844 C 427.15625 32.03125 426.90625 32.496094 426.703125 32.988281 C 426.5 33.480469 426.347656 33.984375 426.242188 34.507812 C 426.140625 35.027344 426.089844 35.554688 426.089844 36.085938 Z M 426.089844 36.085938 " fill-opacity="1" fill-rule="nonzero"/><path fill="#3891f6" d="M 973.128906 380.855469 C 973.128906 381.386719 973.183594 381.914062 973.285156 382.433594 C 973.390625 382.953125 973.542969 383.460938 973.746094 383.953125 C 973.949219 384.441406 974.199219 384.910156 974.496094 385.351562 C 974.789062 385.792969 975.125 386.203125 975.503906 386.578125 C 975.878906 386.953125 976.289062 387.289062 976.730469 387.585938 C 977.171875 387.878906 977.636719 388.128906 978.128906 388.332031 C 978.621094 388.535156 979.125 388.6875 979.648438 388.792969 C 980.167969 388.894531 980.695312 388.949219 981.226562 388.949219 C 981.761719 388.949219 982.285156 388.894531 982.808594 388.792969 C 983.328125 388.6875 983.835938 388.535156 984.328125 388.332031 C 984.816406 388.128906 985.285156 387.878906 985.726562 387.585938 C 986.167969 387.289062 986.578125 386.953125 986.953125 386.578125 C 987.328125 386.203125 987.664062 385.792969 987.960938 385.351562 C 988.257812 384.910156 988.503906 384.441406 988.710938 383.953125 C 988.914062 383.460938 989.066406 382.953125 989.167969 382.433594 C 989.273438 381.914062 989.324219 381.386719 989.324219 380.855469 C 989.324219 380.324219 989.273438 379.796875 989.167969 379.277344 C 989.066406 378.753906 988.914062 378.25 988.710938 377.757812 C 988.503906 377.265625 988.257812 376.800781 987.960938 376.359375 C 987.664062 375.917969 987.328125 375.507812 986.953125 375.132812 C 986.578125 374.757812 986.167969 374.421875 985.726562 374.125 C 985.285156 373.828125 984.816406 373.582031 984.328125 373.378906 C 983.835938 373.171875 983.328125 373.019531 982.808594 372.917969 C 982.285156 372.8125 981.761719 372.761719 981.226562 372.761719 C 980.695312 372.761719 980.167969 372.8125 979.648438 372.917969 C 979.125 373.019531 978.621094 373.171875 978.128906 373.378906 C 977.636719 373.582031 977.171875 373.828125 976.730469 374.125 C 976.289062 374.421875 975.878906 374.757812 975.503906 375.132812 C 975.125 375.507812 974.789062 375.917969 974.496094 376.359375 C 974.199219 376.800781 973.949219 377.265625 973.746094 377.757812 C 973.542969 378.25 973.390625 378.753906 973.285156 379.277344 C 973.183594 379.796875 973.128906 380.324219 973.128906 380.855469 Z M 973.128906 380.855469 " fill-opacity="1" fill-rule="nonzero"/><path fill="#3891f6" d="M 976.671875 198.171875 C 976.671875 198.703125 976.726562 199.230469 976.828125 199.75 C 976.933594 200.273438 977.085938 200.777344 977.289062 201.269531 C 977.492188 201.761719 977.742188 202.226562 978.039062 202.667969 C 978.332031 203.109375 978.667969 203.519531 979.046875 203.894531 C 979.421875 204.269531 979.828125 204.605469 980.273438 204.902344 C 980.714844 205.195312 981.179688 205.445312 981.671875 205.648438 C 982.164062 205.851562 982.667969 206.007812 983.191406 206.109375 C 983.710938 206.214844 984.238281 206.265625 984.769531 206.265625 C 985.300781 206.265625 985.828125 206.214844 986.351562 206.109375 C 986.871094 206.007812 987.378906 205.851562 987.871094 205.648438 C 988.359375 205.445312 988.828125 205.195312 989.269531 204.902344 C 989.710938 204.605469 990.121094 204.269531 990.496094 203.894531 C 990.871094 203.519531 991.207031 203.109375 991.503906 202.667969 C 991.800781 202.226562 992.046875 201.761719 992.25 201.269531 C 992.457031 200.777344 992.609375 200.273438 992.710938 199.75 C 992.816406 199.230469 992.867188 198.703125 992.867188 198.171875 C 992.867188 197.640625 992.816406 197.113281 992.710938 196.59375 C 992.609375 196.070312 992.457031 195.566406 992.25 195.074219 C 992.046875 194.585938 991.800781 194.117188 991.503906 193.675781 C 991.207031 193.234375 990.871094 192.824219 990.496094 192.449219 C 990.121094 192.074219 989.710938 191.738281 989.269531 191.441406 C 988.828125 191.148438 988.359375 190.898438 987.871094 190.695312 C 987.378906 190.492188 986.871094 190.339844 986.351562 190.234375 C 985.828125 190.128906 985.300781 190.078125 984.769531 190.078125 C 984.238281 190.078125 983.710938 190.128906 983.191406 190.234375 C 982.667969 190.339844 982.164062 190.492188 981.671875 190.695312 C 981.179688 190.898438 980.714844 191.148438 980.273438 191.441406 C 979.828125 191.738281 979.421875 192.074219 979.046875 192.449219 C 978.667969 192.824219 978.332031 193.234375 978.039062 193.675781 C 977.742188 194.117188 977.492188 194.585938 977.289062 195.074219 C 977.085938 195.566406 976.933594 196.070312 976.828125 196.59375 C 976.726562 197.113281 976.671875 197.640625 976.671875 198.171875 Z M 976.671875 198.171875 " fill-opacity="1" fill-rule="nonzero"/><path fill="#3891f6" d="M 760.394531 513.097656 L 835.113281 438.449219 L 835.113281 384.46875 L 809.304688 361.703125 L 809.304688 285.105469 L 860.636719 233.796875 L 859.261719 232.425781 L 807.351562 284.308594 L 807.351562 362.570312 L 833.160156 385.335938 L 833.160156 437.652344 L 759.019531 511.761719 Z M 760.394531 513.097656 " fill-opacity="1" fill-rule="nonzero"/><path fill="#3891f6" d="M 393.15625 173.351562 L 442.859375 173.351562 L 473.730469 114.636719 L 608.421875 114.636719 L 639.800781 149.070312 L 768.203125 149.070312 L 810.53125 106.757812 L 809.160156 105.386719 L 767.40625 147.117188 L 640.667969 147.117188 L 609.292969 112.71875 L 472.574219 112.71875 L 441.703125 171.398438 L 393.15625 171.398438 Z M 393.15625 173.351562 " fill-opacity="1" fill-rule="nonzero"/></svg>