<svg xmlns="http://www.w3.org/2000/svg" xmlns:xlink="http://www.w3.org/1999/xlink" width="1344" zoomAndPan="magnify" viewBox="0 0 1008 1007.999987" height="1344" preserveAspectRatio="xMidYMid meet" version="1.0"><path fill="#d8d8d8" d="M 504.230469 0 C 495.984375 0.00390625 487.738281 0.207031 479.5 0.617188 C 471.261719 1.023438 463.035156 1.632812 454.828125 2.445312 C 446.617188 3.253906 438.433594 4.269531 430.273438 5.480469 C 422.117188 6.695312 413.992188 8.105469 405.902344 9.71875 C 397.8125 11.332031 389.765625 13.140625 381.765625 15.148438 C 373.761719 17.15625 365.816406 19.355469 357.921875 21.753906 C 350.03125 24.152344 342.199219 26.742188 334.433594 29.523438 C 326.667969 32.304688 318.976562 35.273438 311.355469 38.433594 C 303.734375 41.59375 296.195312 44.9375 288.742188 48.46875 C 281.285156 51.996094 273.921875 55.707031 266.648438 59.597656 C 259.371094 63.488281 252.199219 67.554688 245.125 71.800781 C 238.050781 76.042969 231.085938 80.457031 224.226562 85.042969 C 217.371094 89.628906 210.628906 94.378906 204.003906 99.292969 C 197.382812 104.210938 190.882812 109.285156 184.507812 114.519531 C 178.132812 119.757812 171.890625 125.144531 165.777344 130.6875 C 159.667969 136.226562 153.699219 141.917969 147.867188 147.75 C 142.035156 153.585938 136.351562 159.5625 130.8125 165.675781 C 125.277344 171.789062 119.890625 178.035156 114.660156 184.414062 C 109.429688 190.792969 104.359375 197.292969 99.445312 203.921875 C 94.535156 210.550781 89.789062 217.292969 85.207031 224.152344 C 80.625 231.011719 76.214844 237.980469 71.976562 245.058594 C 67.738281 252.136719 63.675781 259.3125 59.789062 266.589844 C 55.90625 273.863281 52.199219 281.230469 48.675781 288.691406 C 45.148438 296.148438 41.808594 303.6875 38.65625 311.3125 C 35.5 318.933594 32.535156 326.628906 29.757812 334.394531 C 26.984375 342.164062 24.398438 349.996094 22.007812 357.890625 C 19.613281 365.785156 17.417969 373.730469 15.414062 381.734375 C 13.414062 389.738281 11.609375 397.785156 10.003906 405.875 C 8.394531 413.964844 6.988281 422.09375 5.78125 430.253906 C 4.574219 438.414062 3.566406 446.597656 2.761719 454.808594 C 1.953125 463.015625 1.351562 471.242188 0.949219 479.480469 C 0.546875 487.71875 0.34375 495.964844 0.347656 504.210938 C 0.351562 512.460938 0.554688 520.707031 0.960938 528.945312 C 1.371094 537.183594 1.980469 545.40625 2.789062 553.617188 C 3.601562 561.828125 4.613281 570.011719 5.824219 578.167969 C 7.039062 586.328125 8.453125 594.453125 10.0625 602.542969 C 11.675781 610.632812 13.484375 618.679688 15.492188 626.679688 C 17.496094 634.683594 19.699219 642.628906 22.097656 650.523438 C 24.492188 658.414062 27.082031 666.246094 29.863281 674.011719 C 32.644531 681.777344 35.617188 689.472656 38.773438 697.089844 C 41.933594 704.710938 45.277344 712.25 48.808594 719.707031 C 52.335938 727.160156 56.046875 734.527344 59.9375 741.800781 C 63.828125 749.074219 67.894531 756.25 72.136719 763.324219 C 76.378906 770.398438 80.792969 777.363281 85.378906 784.21875 C 89.964844 791.078125 94.714844 797.820312 99.628906 804.441406 C 104.546875 811.066406 109.621094 817.566406 114.855469 823.941406 C 120.089844 830.316406 125.480469 836.558594 131.019531 842.671875 C 136.5625 848.78125 142.25 854.753906 148.085938 860.582031 C 153.921875 866.414062 159.894531 872.101562 166.007812 877.636719 C 172.121094 883.175781 178.367188 888.558594 184.746094 893.792969 C 191.125 899.023438 197.625 904.09375 204.253906 909.007812 C 210.882812 913.917969 217.625 918.664062 224.484375 923.246094 C 231.34375 927.828125 238.3125 932.238281 245.390625 936.476562 C 252.46875 940.714844 259.644531 944.777344 266.917969 948.664062 C 274.195312 952.550781 281.5625 956.257812 289.019531 959.78125 C 296.480469 963.304688 304.019531 966.644531 311.640625 969.800781 C 319.261719 972.957031 326.957031 975.921875 334.726562 978.699219 C 342.492188 981.476562 350.324219 984.058594 358.21875 986.453125 C 366.113281 988.84375 374.0625 991.042969 382.0625 993.042969 C 390.066406 995.046875 398.113281 996.851562 406.203125 998.457031 C 414.296875 1000.066406 422.421875 1001.472656 430.582031 1002.679688 C 438.742188 1003.890625 446.925781 1004.894531 455.136719 1005.703125 C 463.34375 1006.507812 471.570312 1007.113281 479.808594 1007.515625 C 488.046875 1007.917969 496.292969 1008.117188 504.542969 1008.117188 C 512.789062 1008.113281 521.035156 1007.910156 529.273438 1007.503906 C 537.511719 1007.09375 545.738281 1006.488281 553.945312 1005.675781 C 562.15625 1004.863281 570.339844 1003.851562 578.5 1002.640625 C 586.660156 1001.429688 594.78125 1000.015625 602.875 998.40625 C 610.964844 996.792969 619.007812 994.984375 627.011719 992.976562 C 635.011719 990.972656 642.960938 988.769531 650.851562 986.375 C 658.746094 983.976562 666.574219 981.386719 674.339844 978.605469 C 682.109375 975.824219 689.800781 972.855469 697.421875 969.695312 C 705.042969 966.539062 712.578125 963.195312 720.035156 959.664062 C 727.492188 956.136719 734.855469 952.425781 742.132812 948.535156 C 749.40625 944.644531 756.578125 940.578125 763.652344 936.335938 C 770.726562 932.09375 777.695312 927.679688 784.550781 923.09375 C 791.410156 918.511719 798.152344 913.761719 804.777344 908.84375 C 811.398438 903.929688 817.898438 898.855469 824.273438 893.621094 C 830.652344 888.382812 836.894531 882.996094 843.003906 877.457031 C 849.113281 871.914062 855.085938 866.226562 860.917969 860.390625 C 866.75 854.558594 872.433594 848.582031 877.972656 842.46875 C 883.511719 836.355469 888.894531 830.109375 894.128906 823.734375 C 899.359375 817.355469 904.429688 810.851562 909.34375 804.226562 C 914.253906 797.597656 919.003906 790.855469 923.582031 783.996094 C 928.164062 777.136719 932.574219 770.167969 936.8125 763.089844 C 941.054688 756.011719 945.117188 748.835938 949.003906 741.5625 C 952.890625 734.285156 956.597656 726.917969 960.121094 719.460938 C 963.644531 712.003906 966.984375 704.460938 970.140625 696.839844 C 973.296875 689.21875 976.261719 681.523438 979.039062 673.757812 C 981.816406 665.988281 984.402344 658.15625 986.792969 650.261719 C 989.1875 642.371094 991.382812 634.421875 993.386719 626.417969 C 995.390625 618.417969 997.195312 610.371094 998.800781 602.277344 C 1000.410156 594.1875 1001.816406 586.0625 1003.027344 577.902344 C 1004.234375 569.742188 1005.242188 561.558594 1006.046875 553.347656 C 1006.855469 545.136719 1007.460938 536.914062 1007.863281 528.675781 C 1008.265625 520.433594 1008.464844 512.191406 1008.464844 503.941406 C 1008.445312 495.695312 1008.226562 487.457031 1007.808594 479.222656 C 1007.386719 470.984375 1006.765625 462.765625 1005.941406 454.5625 C 1005.117188 446.355469 1004.09375 438.175781 1002.871094 430.023438 C 1001.644531 421.867188 1000.222656 413.75 998.601562 405.664062 C 996.980469 397.578125 995.160156 389.539062 993.144531 381.542969 C 991.128906 373.546875 988.917969 365.605469 986.515625 357.71875 C 984.109375 349.832031 981.515625 342.007812 978.726562 334.25 C 975.9375 326.488281 972.960938 318.800781 969.796875 311.1875 C 966.632812 303.574219 963.285156 296.039062 959.75 288.589844 C 956.21875 281.140625 952.503906 273.78125 948.609375 266.511719 C 944.714844 259.242188 940.644531 252.074219 936.402344 245.003906 C 932.15625 237.9375 927.738281 230.976562 923.152344 224.121094 C 918.566406 217.269531 913.816406 210.535156 908.902344 203.914062 C 903.984375 197.292969 898.910156 190.796875 893.675781 184.425781 C 888.441406 178.054688 883.054688 171.816406 877.515625 165.707031 C 871.972656 159.601562 866.289062 153.632812 860.457031 147.804688 C 854.625 141.976562 848.652344 136.292969 842.542969 130.753906 C 836.429688 125.21875 830.1875 119.835938 823.8125 114.605469 C 817.4375 109.375 810.941406 104.304688 804.316406 99.390625 C 797.695312 94.476562 790.957031 89.730469 784.101562 85.148438 C 777.246094 80.566406 770.28125 76.15625 763.210938 71.914062 C 756.140625 67.671875 748.96875 63.609375 741.695312 59.71875 C 734.425781 55.828125 727.066406 52.117188 719.613281 48.589844 C 712.160156 45.058594 704.625 41.714844 697.007812 38.554688 C 689.394531 35.394531 681.703125 32.425781 673.941406 29.640625 C 666.179688 26.855469 658.355469 24.265625 650.46875 21.863281 C 642.578125 19.464844 634.636719 17.257812 626.636719 15.25 C 618.640625 13.238281 610.601562 11.421875 602.515625 9.804688 C 594.429688 8.1875 586.308594 6.769531 578.152344 5.550781 C 570 4.332031 561.820312 3.3125 553.613281 2.496094 C 545.410156 1.675781 537.1875 1.058594 528.953125 0.640625 C 520.71875 0.226562 512.476562 0.0117188 504.230469 0 Z M 643.425781 929.238281 C 621.5625 933.703125 613.5 920.25 613.5 908.648438 C 613.5 893.859375 614.136719 846.882812 614.136719 788.363281 C 614.136719 747.765625 600.335938 721.203125 584.558594 707.6875 C 681.703125 696.726562 783.953125 659.78125 783.953125 491.878906 C 784.039062 486.511719 783.863281 481.148438 783.4375 475.796875 C 783.007812 470.445312 782.324219 465.125 781.386719 459.835938 C 780.449219 454.550781 779.261719 449.320312 777.828125 444.148438 C 776.390625 438.972656 774.710938 433.878906 772.789062 428.867188 C 770.863281 423.851562 768.707031 418.941406 766.316406 414.136719 C 763.921875 409.328125 761.308594 404.644531 758.46875 400.089844 C 755.628906 395.53125 752.578125 391.117188 749.316406 386.851562 C 746.058594 382.585938 742.601562 378.484375 738.949219 374.550781 C 743.414062 363.585938 758.839844 318.871094 734.714844 258.554688 C 734.714844 258.554688 698.058594 246.605469 614.484375 303.210938 C 605.59375 300.820312 596.632812 298.71875 587.605469 296.914062 C 578.578125 295.109375 569.5 293.605469 560.371094 292.398438 C 551.242188 291.191406 542.085938 290.285156 532.898438 289.679688 C 523.710938 289.074219 514.511719 288.773438 505.304688 288.773438 C 496.097656 288.773438 486.898438 289.074219 477.710938 289.679688 C 468.523438 290.285156 459.367188 291.191406 450.238281 292.398438 C 441.109375 293.605469 432.03125 295.109375 423.003906 296.914062 C 413.976562 298.71875 405.015625 300.820312 396.125 303.210938 C 312.550781 247.300781 275.835938 258.554688 275.835938 258.554688 C 252.058594 318.640625 267.195312 363.355469 271.660156 374.550781 C 268.035156 378.5 264.601562 382.613281 261.363281 386.886719 C 258.128906 391.160156 255.101562 395.582031 252.28125 400.144531 C 249.464844 404.703125 246.871094 409.390625 244.496094 414.199219 C 242.121094 419.007812 239.980469 423.917969 238.074219 428.929688 C 236.167969 433.941406 234.5 439.03125 233.078125 444.203125 C 231.652344 449.371094 230.476562 454.597656 229.546875 459.878906 C 228.617188 465.160156 227.941406 470.472656 227.515625 475.816406 C 227.089844 481.164062 226.917969 486.515625 227.003906 491.878906 C 227.003906 659.085938 328.613281 696.726562 425.703125 707.6875 C 413.175781 718.589844 401.574219 737.558594 397.746094 766.207031 C 372.636719 777.460938 309.9375 796.078125 270.734375 730.191406 C 262.382812 716.96875 237.90625 684.835938 203.511719 685.183594 C 166.859375 685.824219 188.722656 706.0625 203.863281 714.183594 C 222.480469 724.796875 243.707031 763.367188 248.867188 775.894531 C 257.507812 800.660156 285.8125 847.578125 395.484375 827.335938 C 395.484375 863.992188 396.125 898.441406 396.125 908.535156 C 396.125 920.132812 388.121094 932.953125 366.195312 929.125 C 358.097656 926.410156 350.082031 923.460938 342.15625 920.277344 C 334.226562 917.089844 326.398438 913.675781 318.671875 910.035156 C 310.945312 906.390625 303.332031 902.523438 295.832031 898.429688 C 288.332031 894.339844 280.960938 890.03125 273.714844 885.507812 C 266.46875 880.984375 259.359375 876.25 252.390625 871.308594 C 245.421875 866.367188 238.605469 861.222656 231.9375 855.882812 C 225.269531 850.539062 218.765625 845.007812 212.425781 839.28125 C 206.082031 833.558594 199.914062 827.652344 193.917969 821.566406 C 187.925781 815.480469 182.113281 809.222656 176.484375 802.796875 C 170.859375 796.367188 165.425781 789.78125 160.183594 783.03125 C 154.941406 776.285156 149.90625 769.390625 145.070312 762.347656 C 140.234375 755.304688 135.609375 748.125 131.195312 740.8125 C 126.78125 733.496094 122.585938 726.058594 118.609375 718.5 C 114.632812 710.9375 110.878906 703.265625 107.351562 695.484375 C 103.824219 687.703125 100.53125 679.828125 97.46875 671.851562 C 94.402344 663.878906 91.574219 655.820312 88.984375 647.679688 C 86.394531 639.539062 84.042969 631.328125 81.9375 623.050781 C 79.828125 614.769531 77.964844 606.4375 76.34375 598.046875 C 74.726562 589.660156 73.355469 581.230469 72.230469 572.761719 C 71.105469 564.292969 70.230469 555.800781 69.605469 547.28125 C 68.980469 538.757812 68.605469 530.226562 68.484375 521.6875 C 68.359375 513.144531 68.484375 504.605469 68.863281 496.070312 C 69.242188 487.535156 69.867188 479.019531 70.746094 470.519531 C 71.621094 462.023438 72.75 453.558594 74.125 445.128906 C 75.5 436.695312 77.121094 428.3125 78.988281 419.972656 C 80.855469 411.636719 82.964844 403.363281 85.316406 395.152344 C 87.671875 386.9375 90.261719 378.800781 93.09375 370.742188 C 95.925781 362.679688 98.988281 354.710938 102.289062 346.832031 C 105.589844 338.949219 109.117188 331.171875 112.871094 323.5 C 116.628906 315.828125 120.605469 308.269531 124.804688 300.832031 C 129.003906 293.390625 133.417969 286.082031 138.046875 278.902344 C 142.679688 271.722656 147.511719 264.683594 152.554688 257.785156 C 157.597656 250.890625 162.839844 244.148438 168.277344 237.558594 C 173.714844 230.96875 179.34375 224.546875 185.160156 218.289062 C 190.972656 212.03125 196.96875 205.949219 203.140625 200.042969 C 209.3125 194.136719 215.65625 188.417969 222.164062 182.882812 C 228.671875 177.351562 235.339844 172.011719 242.160156 166.871094 C 248.984375 161.730469 255.949219 156.792969 263.0625 152.058594 C 270.175781 147.324219 277.417969 142.804688 284.796875 138.5 C 292.175781 134.191406 299.671875 130.105469 307.289062 126.238281 C 314.910156 122.371094 322.632812 118.730469 330.464844 115.316406 C 338.296875 111.902344 346.222656 108.722656 354.238281 105.773438 C 362.257812 102.828125 370.355469 100.117188 378.535156 97.644531 C 386.710938 95.171875 394.953125 92.941406 403.261719 90.953125 C 411.570312 88.964844 419.929688 87.222656 428.34375 85.726562 C 436.753906 84.230469 445.199219 82.980469 453.683594 81.980469 C 462.167969 80.980469 470.675781 80.226562 479.203125 79.726562 C 487.734375 79.226562 496.269531 78.976562 504.8125 78.976562 C 513.355469 78.976562 521.890625 79.226562 530.417969 79.726562 C 538.945312 80.226562 547.453125 80.980469 555.9375 81.980469 C 564.421875 82.980469 572.871094 84.230469 581.28125 85.726562 C 589.691406 87.222656 598.050781 88.964844 606.359375 90.953125 C 614.667969 92.941406 622.910156 95.171875 631.089844 97.644531 C 639.265625 100.117188 647.363281 102.828125 655.382812 105.773438 C 663.402344 108.722656 671.324219 111.902344 679.15625 115.316406 C 686.988281 118.730469 694.714844 122.371094 702.332031 126.238281 C 709.949219 130.105469 717.449219 134.191406 724.824219 138.5 C 732.203125 142.804688 739.449219 147.324219 746.558594 152.058594 C 753.671875 156.792969 760.640625 161.730469 767.460938 166.871094 C 774.285156 172.011719 780.949219 177.351562 787.460938 182.882812 C 793.96875 188.417969 800.308594 194.136719 806.480469 200.042969 C 812.65625 205.949219 818.648438 212.03125 824.464844 218.289062 C 830.28125 224.546875 835.90625 230.96875 841.347656 237.558594 C 846.785156 244.148438 852.023438 250.890625 857.066406 257.785156 C 862.109375 264.683594 866.945312 271.722656 871.574219 278.902344 C 876.203125 286.082031 880.617188 293.390625 884.816406 300.832031 C 889.015625 308.269531 892.996094 315.828125 896.75 323.5 C 900.507812 331.171875 904.035156 338.949219 907.332031 346.832031 C 910.632812 354.710938 913.699219 362.679688 916.527344 370.742188 C 919.359375 378.800781 921.953125 386.9375 924.304688 395.152344 C 926.660156 403.363281 928.769531 411.636719 930.636719 419.972656 C 932.503906 428.3125 934.125 436.695312 935.5 445.128906 C 936.875 453.558594 938 462.023438 938.878906 470.519531 C 939.753906 479.019531 940.382812 487.535156 940.761719 496.070312 C 941.136719 504.605469 941.265625 513.144531 941.140625 521.6875 C 941.015625 530.226562 940.640625 538.757812 940.015625 547.28125 C 939.390625 555.800781 938.515625 564.292969 937.394531 572.761719 C 936.269531 581.230469 934.898438 589.660156 933.277344 598.046875 C 931.660156 606.4375 929.796875 614.769531 927.6875 623.050781 C 925.578125 631.328125 923.230469 639.539062 920.636719 647.679688 C 918.046875 655.820312 915.21875 663.878906 912.15625 671.851562 C 909.09375 679.828125 905.796875 687.703125 902.269531 695.484375 C 898.742188 703.265625 894.992188 710.9375 891.015625 718.5 C 887.039062 726.058594 882.84375 733.5 878.429688 740.8125 C 874.015625 748.128906 869.390625 755.304688 864.554688 762.347656 C 859.71875 769.390625 854.679688 776.285156 849.441406 783.03125 C 844.199219 789.78125 838.765625 796.367188 833.136719 802.796875 C 827.511719 809.222656 821.699219 815.480469 815.703125 821.566406 C 809.707031 827.652344 803.539062 833.558594 797.199219 839.28125 C 790.855469 845.007812 784.351562 850.539062 777.6875 855.882812 C 771.019531 861.222656 764.203125 866.367188 757.234375 871.308594 C 750.265625 876.25 743.15625 880.984375 735.910156 885.507812 C 728.664062 890.03125 721.289062 894.339844 713.789062 898.429688 C 706.289062 902.523438 698.675781 906.390625 690.949219 910.035156 C 683.222656 913.675781 675.394531 917.09375 667.46875 920.277344 C 659.539062 923.460938 651.527344 926.410156 643.425781 929.125 Z M 643.425781 929.238281 " fill-opacity="1" fill-rule="evenodd"/></svg>