<svg xmlns="http://www.w3.org/2000/svg" xmlns:xlink="http://www.w3.org/1999/xlink" width="1344" zoomAndPan="magnify" viewBox="0 0 1008 1007.999987" height="1344" preserveAspectRatio="xMidYMid meet" version="1.0"><path fill="#d8d8d8" d="M 296.386719 0 C 133.695312 0 0 133.515625 0 296.386719 L 0 711.613281 C 0 874.304688 133.515625 1008 296.386719 1008 L 711.613281 1008 C 874.304688 1008 1008 874.484375 1008 711.613281 L 1008 296.386719 C 1008 133.695312 874.484375 0 711.613281 0 Z M 296.386719 91.636719 L 711.613281 91.636719 C 824.90625 91.636719 916.363281 183.09375 916.363281 296.386719 L 916.363281 711.613281 C 916.363281 824.90625 824.90625 916.363281 711.613281 916.363281 L 296.386719 916.363281 C 183.09375 916.363281 91.636719 824.90625 91.636719 711.613281 L 91.636719 296.386719 C 91.636719 183.09375 183.09375 91.636719 296.386719 91.636719 Z M 774.613281 191.863281 C 751.527344 191.863281 733.089844 210.296875 733.089844 233.386719 C 733.089844 256.472656 751.527344 274.910156 774.613281 274.910156 C 797.703125 274.910156 816.136719 256.472656 816.136719 233.386719 C 816.136719 210.296875 797.703125 191.863281 774.613281 191.863281 Z M 504 229.089844 C 352.765625 229.089844 229.089844 352.765625 229.089844 504 C 229.089844 655.234375 352.765625 778.910156 504 778.910156 C 655.234375 778.910156 778.910156 655.234375 778.910156 504 C 778.910156 352.765625 655.234375 229.089844 504 229.089844 Z M 504 320.726562 C 605.839844 320.726562 687.273438 402.160156 687.273438 504 C 687.273438 605.839844 605.839844 687.273438 504 687.273438 C 402.160156 687.273438 320.726562 605.839844 320.726562 504 C 320.726562 402.160156 402.160156 320.726562 504 320.726562 Z M 504 320.726562 " fill-opacity="1" fill-rule="nonzero"/></svg>