<svg xmlns="http://www.w3.org/2000/svg" xmlns:xlink="http://www.w3.org/1999/xlink" width="2140" zoomAndPan="magnify" viewBox="0 0 1605.75 1598.249996" height="2131" preserveAspectRatio="xMidYMid meet" version="1.0"><defs><clipPath id="e0b3436185"><path d="M 14 5 L 791 5 L 791 1597.5 L 14 1597.5 Z M 14 5 " clip-rule="nonzero"/></clipPath><clipPath id="6c5ea7f6c5"><path d="M 833 5 L 1605.25 5 L 1605.25 1597.5 L 833 1597.5 Z M 833 5 " clip-rule="nonzero"/></clipPath></defs><path fill="#000000" d="M 396.390625 1318.976562 C 391.574219 1332.175781 398.175781 1347.160156 411.195312 1351.972656 C 424.394531 1356.789062 439.019531 1349.835938 444.011719 1336.636719 C 469.875 1267.964844 546.925781 1232.828125 615.953125 1258.511719 C 629.328125 1263.328125 643.777344 1256.371094 648.769531 1243.175781 C 653.765625 1229.976562 647.34375 1215.351562 633.96875 1210.355469 C 538.542969 1175.039062 432.0625 1223.734375 396.390625 1318.976562 Z M 396.390625 1318.976562 " fill-opacity="1" fill-rule="nonzero"/><g clip-path="url(#e0b3436185)"><path fill="#000000" d="M 724.929688 23.898438 C 689.972656 1.070312 645.738281 -0.355469 594.371094 19.085938 C 590.269531 20.332031 504.835938 50.832031 449.363281 103.269531 C 445.796875 103.09375 442.585938 102.558594 439.019531 102.558594 C 337.175781 102.558594 254.59375 185.316406 254.59375 287.339844 C 254.59375 311.597656 259.410156 335.140625 268.683594 357.257812 C 178.613281 382.046875 112.261719 463.382812 112.261719 561.121094 C 112.261719 579.671875 115.652344 597.863281 120.109375 615.703125 C 55.722656 653.515625 14.878906 722.894531 14.878906 798.519531 C 14.878906 853.097656 35.925781 902.328125 70.167969 939.960938 C 57.683594 967.429688 50.550781 997.394531 50.550781 1028.070312 C 50.550781 1113.507812 102.453125 1189.667969 179.148438 1222.839844 C 171.476562 1242.996094 167.375 1264.933594 167.375 1286.871094 C 167.375 1388.894531 250.136719 1471.476562 352.15625 1471.476562 C 356.792969 1471.476562 361.789062 1470.40625 366.78125 1470.050781 C 394.605469 1546.386719 477.1875 1600.074219 573.324219 1600.074219 C 692.828125 1600.074219 790.210938 1517.136719 790.210938 1415.472656 L 790.210938 1234.96875 C 790.210938 1234.96875 790.210938 1234.96875 790.210938 1234.613281 L 790.210938 551.667969 C 790.210938 551.667969 790.210938 551.667969 790.210938 551.492188 L 790.210938 551.3125 L 790.03125 152.140625 C 790.03125 148.574219 784.503906 62.78125 724.929688 23.898438 Z M 739.199219 424.855469 C 705.667969 389.363281 658.222656 366.886719 605.429688 366.886719 C 591.339844 366.886719 579.925781 378.304688 579.925781 392.394531 C 579.925781 406.304688 591.339844 417.898438 605.429688 417.898438 C 679.269531 417.898438 739.199219 477.828125 739.199219 551.667969 L 739.199219 1108.332031 C 705.667969 1072.839844 658.222656 1050.1875 605.429688 1050.1875 C 591.339844 1050.007812 579.925781 1061.425781 579.925781 1075.335938 C 579.925781 1089.605469 591.339844 1100.84375 605.429688 1100.84375 C 679.269531 1100.84375 739.199219 1161.128906 739.199219 1234.613281 L 739.199219 1415.472656 C 739.199219 1488.957031 665.003906 1549.242188 573.324219 1549.242188 C 492.171875 1549.242188 423.144531 1502.152344 409.769531 1437.765625 C 406.734375 1424.03125 393.003906 1415.472656 379.269531 1417.789062 C 379.269531 1417.789062 379.089844 1417.789062 378.910156 1417.789062 C 370.171875 1419.929688 361.253906 1420.644531 352.15625 1420.644531 C 278.316406 1420.644531 218.207031 1360.714844 218.207031 1286.871094 C 218.207031 1263.507812 224.449219 1240.855469 235.867188 1220.699219 C 236.578125 1219.628906 236.757812 1218.203125 237.113281 1216.777344 C 237.292969 1216.0625 238.007812 1215.707031 238.542969 1214.992188 C 238.542969 1214.28125 238.542969 1213.210938 238.542969 1212.140625 C 238.71875 1211.070312 238.71875 1210 238.71875 1208.574219 C 238.71875 1206.433594 238.71875 1204.46875 238.542969 1202.6875 C 238.007812 1201.4375 237.648438 1200.367188 237.113281 1199.476562 C 236.402344 1197.335938 235.6875 1195.910156 234.4375 1194.304688 C 233.902344 1193.054688 232.835938 1192.164062 231.941406 1191.09375 C 230.515625 1189.667969 229.089844 1188.597656 227.839844 1187.167969 C 227.125 1186.8125 226.949219 1186.457031 226.234375 1186.097656 C 225.34375 1185.386719 224.09375 1185.386719 222.847656 1184.851562 C 222.132812 1184.492188 221.417969 1184.136719 220.527344 1183.78125 C 150.429688 1164.515625 101.738281 1100.484375 101.738281 1028.070312 C 101.738281 1010.234375 105.664062 992.578125 111.371094 976.167969 C 144.722656 997.75 184.320312 1010.949219 227.125 1010.949219 C 241.039062 1010.949219 252.632812 999.535156 252.632812 985.441406 C 252.632812 971.175781 241.039062 959.582031 227.125 959.582031 C 137.945312 959.582031 65.886719 887.34375 65.886719 798.34375 C 65.886719 735.738281 102.453125 678.664062 159.171875 652.085938 L 159.347656 652.085938 C 159.707031 651.910156 160.0625 651.550781 160.417969 651.375 C 181.464844 641.921875 203.941406 637.105469 227.125 637.105469 C 241.039062 637.105469 252.632812 625.6875 252.632812 611.597656 C 252.632812 597.507812 241.039062 586.449219 227.125 586.449219 C 206.4375 586.449219 186.816406 590.195312 167.375 595.902344 C 164.878906 584.488281 163.09375 572.894531 163.09375 561.121094 C 163.09375 472.121094 235.6875 399.886719 324.511719 399.886719 C 386.046875 399.886719 441.160156 433.953125 468.804688 489.066406 C 475.226562 501.730469 490.386719 506.542969 503.050781 500.300781 C 515.535156 494.058594 520.707031 478.898438 514.289062 466.234375 C 478.078125 393.820312 405.488281 348.875 324.511719 348.875 C 323.621094 348.875 322.90625 349.050781 321.835938 349.050781 C 311.667969 329.96875 305.425781 309.097656 305.425781 287.160156 C 305.425781 213.320312 365.355469 153.390625 439.199219 153.390625 C 487.710938 153.390625 532.480469 179.789062 556.203125 222.238281 C 566.902344 242.035156 572.789062 264.507812 572.789062 287.160156 C 572.789062 301.074219 584.382812 312.667969 598.296875 312.667969 C 612.386719 312.667969 623.980469 301.074219 623.980469 287.160156 C 623.980469 255.769531 615.953125 224.734375 600.792969 197.625 C 580.28125 161.238281 549.066406 133.769531 512.148438 117.71875 C 557.449219 86.328125 610.421875 67.421875 611.492188 66.886719 C 647.699219 53.328125 676.59375 53.152344 697.105469 66.527344 C 734.5625 90.964844 739.199219 153.570312 739.199219 153.570312 Z M 739.199219 424.855469 " fill-opacity="1" fill-rule="nonzero"/></g><path fill="#000000" d="M 463.988281 673.488281 C 461.492188 659.933594 448.117188 650.839844 434.203125 653.515625 C 420.292969 656.1875 411.550781 669.566406 414.226562 683.300781 C 423.859375 734.488281 450.96875 779.257812 489.496094 813.324219 C 488.601562 816.535156 488.066406 819.746094 488.246094 823.136719 C 492.527344 896.796875 436.34375 960.472656 362.859375 964.929688 C 348.589844 965.644531 338.066406 977.773438 338.78125 991.6875 C 339.671875 1005.242188 350.910156 1015.765625 364.285156 1015.765625 C 364.644531 1015.765625 365.179688 1015.765625 366.070312 1015.765625 C 458.460938 1010.234375 530.339844 936.75 538.007812 846.679688 C 570.472656 863.085938 605.785156 871.648438 641.816406 871.648438 C 656.621094 871.648438 671.421875 870.398438 685.871094 867.546875 C 699.425781 865.050781 708.523438 851.671875 706.023438 837.761719 C 703.527344 824.203125 689.617188 814.929688 676.238281 817.605469 C 628.4375 826.878906 580.28125 816.890625 540.507812 789.601562 C 500.195312 762.3125 473.085938 721.113281 463.988281 673.488281 Z M 463.988281 673.488281 " fill-opacity="1" fill-rule="nonzero"/><path fill="#000000" d="M 989.617188 1210.535156 C 976.597656 1215.351562 970 1229.976562 974.816406 1243.351562 C 979.453125 1256.550781 994.433594 1263.507812 1007.632812 1258.691406 C 1076.660156 1232.828125 1153.890625 1268.144531 1179.75 1336.8125 C 1184.566406 1349.835938 1199.191406 1356.789062 1212.390625 1351.972656 C 1225.769531 1347.160156 1232.1875 1332.175781 1227.195312 1318.800781 C 1191.878906 1223.734375 1085.042969 1175.039062 989.617188 1210.535156 Z M 989.617188 1210.535156 " fill-opacity="1" fill-rule="nonzero"/><g clip-path="url(#6c5ea7f6c5)"><path fill="#000000" d="M 1608.886719 798.519531 C 1608.886719 722.894531 1568.042969 653.515625 1503.476562 615.703125 C 1507.933594 597.867188 1511.324219 579.671875 1511.324219 561.121094 C 1511.324219 463.558594 1444.972656 382.046875 1355.257812 357.257812 C 1364.175781 335.140625 1369.171875 311.597656 1369.171875 287.339844 C 1369.171875 185.496094 1286.410156 102.558594 1184.566406 102.558594 C 1181.179688 102.558594 1177.96875 103.09375 1174.222656 103.269531 C 1118.75 50.832031 1033.140625 20.332031 1029.394531 19.085938 C 977.847656 -0.355469 933.613281 1.070312 898.65625 23.898438 C 839.261719 62.78125 833.730469 148.574219 833.730469 152.140625 L 833.554688 551.3125 L 833.554688 551.492188 C 833.554688 551.492188 833.554688 551.667969 833.554688 551.667969 L 833.554688 1234.613281 C 833.554688 1234.96875 833.554688 1234.96875 833.554688 1234.96875 L 833.554688 1415.472656 C 833.554688 1517.136719 930.9375 1600.074219 1050.441406 1600.074219 C 1146.574219 1600.074219 1229.15625 1546.386719 1256.804688 1470.050781 C 1261.796875 1470.40625 1266.792969 1471.476562 1271.429688 1471.476562 C 1373.273438 1471.476562 1456.210938 1388.894531 1456.210938 1286.871094 C 1456.210938 1264.933594 1452.109375 1242.996094 1444.4375 1222.839844 C 1521.492188 1189.667969 1573.035156 1113.328125 1573.035156 1028.070312 C 1573.035156 997.394531 1566.257812 967.429688 1553.59375 939.960938 C 1587.839844 902.328125 1608.886719 853.097656 1608.886719 798.519531 Z M 1403.058594 1183.78125 C 1402.167969 1184.136719 1401.632812 1184.492188 1400.738281 1184.851562 C 1399.671875 1185.386719 1398.242188 1185.386719 1397.351562 1186.097656 C 1396.636719 1186.457031 1396.460938 1186.8125 1395.746094 1187.167969 C 1394.320312 1188.597656 1393.070312 1189.667969 1391.820312 1191.09375 C 1390.753906 1192.164062 1389.683594 1193.054688 1389.148438 1194.125 C 1387.898438 1195.910156 1387.363281 1197.335938 1386.472656 1199.476562 C 1386.113281 1200.367188 1385.578125 1201.4375 1385.222656 1202.863281 C 1384.867188 1204.648438 1384.867188 1206.609375 1384.867188 1208.75 C 1384.867188 1210.175781 1384.867188 1211.246094 1385.222656 1212.316406 C 1385.222656 1213.386719 1384.867188 1214.457031 1385.222656 1215.171875 C 1385.578125 1215.886719 1386.292969 1216.242188 1386.472656 1216.957031 C 1387.183594 1218.203125 1387.183594 1219.628906 1387.898438 1220.699219 C 1399.136719 1240.855469 1405.554688 1263.507812 1405.554688 1286.871094 C 1405.554688 1360.714844 1345.089844 1420.644531 1271.429688 1420.644531 C 1262.332031 1420.644531 1253.414062 1419.929688 1244.675781 1417.789062 L 1244.316406 1417.789062 C 1230.761719 1415.292969 1217.027344 1424.03125 1213.996094 1437.585938 C 1200.621094 1502.152344 1131.59375 1549.242188 1050.441406 1549.242188 C 958.582031 1549.242188 884.386719 1488.957031 884.386719 1415.472656 L 884.386719 1234.613281 C 884.386719 1161.128906 944.492188 1100.84375 1018.15625 1100.84375 C 1032.246094 1100.84375 1043.839844 1089.605469 1043.839844 1075.335938 C 1043.839844 1061.425781 1032.425781 1049.832031 1018.15625 1049.832031 C 965.363281 1049.832031 917.917969 1072.484375 884.386719 1107.976562 L 884.386719 551.492188 C 884.386719 477.648438 944.492188 417.722656 1018.15625 417.722656 C 1032.246094 417.722656 1043.839844 406.304688 1043.839844 392.214844 C 1043.839844 378.125 1032.425781 366.53125 1018.15625 366.53125 C 965.363281 366.53125 917.917969 389.003906 884.386719 424.5 L 884.386719 153.570312 C 884.386719 153.570312 888.84375 90.964844 926.835938 66.527344 C 946.992188 53.152344 976.0625 53.328125 1012.269531 66.886719 C 1013.339844 67.421875 1066.3125 86.328125 1111.617188 117.71875 C 1074.695312 133.769531 1043.125 161.238281 1022.972656 197.625 C 1007.988281 224.914062 999.964844 255.949219 999.964844 287.160156 C 999.964844 301.074219 1011.199219 312.667969 1025.46875 312.667969 C 1039.558594 312.667969 1050.976562 301.074219 1050.976562 287.160156 C 1050.976562 264.507812 1056.683594 242.035156 1067.742188 222.238281 C 1091.105469 179.964844 1135.875 153.570312 1184.566406 153.570312 C 1258.230469 153.570312 1318.335938 213.496094 1318.335938 287.339844 C 1318.335938 309.277344 1311.917969 330.144531 1301.929688 349.230469 C 1300.859375 349.230469 1299.964844 349.050781 1299.074219 349.050781 C 1218.097656 349.050781 1145.507812 393.820312 1109.296875 466.414062 C 1103.054688 478.898438 1108.050781 494.058594 1120.714844 500.300781 C 1133.199219 506.542969 1148.359375 501.550781 1154.78125 489.066406 C 1182.25 433.953125 1237.539062 399.886719 1299.074219 399.886719 C 1387.898438 399.886719 1460.492188 472.121094 1460.492188 561.121094 C 1460.492188 572.894531 1458.527344 584.488281 1456.210938 595.902344 C 1437.125 590.195312 1417.507812 586.449219 1396.460938 586.449219 C 1382.546875 586.449219 1370.777344 597.6875 1370.777344 611.777344 C 1370.777344 625.867188 1382.546875 637.28125 1396.460938 637.28125 C 1419.824219 637.28125 1442.121094 642.097656 1462.988281 651.550781 C 1463.523438 651.730469 1463.878906 652.085938 1464.238281 652.265625 L 1464.59375 652.265625 C 1521.3125 678.664062 1557.699219 735.917969 1557.699219 798.519531 C 1557.699219 887.523438 1485.460938 959.757812 1396.460938 959.757812 C 1382.546875 959.757812 1370.777344 971.175781 1370.777344 985.621094 C 1370.777344 999.535156 1382.367188 1011.128906 1396.460938 1011.128906 C 1439.265625 1011.128906 1478.863281 997.929688 1512.039062 976.347656 C 1518.101562 992.398438 1521.847656 1010.234375 1521.847656 1028.070312 C 1521.847656 1100.484375 1473.15625 1164.515625 1403.058594 1183.78125 Z M 1403.058594 1183.78125 " fill-opacity="1" fill-rule="nonzero"/></g><path fill="#000000" d="M 1261.082031 964.929688 C 1187.421875 960.472656 1131.238281 896.796875 1135.339844 823.136719 C 1135.695312 819.746094 1135.160156 816.535156 1134.089844 813.324219 C 1172.796875 779.4375 1199.726562 734.667969 1209.539062 683.300781 C 1212.390625 669.566406 1203.472656 656.1875 1189.5625 653.515625 C 1175.46875 650.839844 1162.09375 659.933594 1159.597656 673.488281 C 1150.320312 721.113281 1123.210938 762.3125 1083.257812 789.601562 C 1043.125 816.890625 994.96875 826.878906 947.527344 817.605469 C 934.148438 814.929688 920.058594 824.203125 917.5625 837.761719 C 915.0625 851.671875 924.160156 865.050781 938.074219 867.726562 C 952.699219 870.402344 967.324219 871.828125 981.949219 871.828125 C 1017.976562 871.828125 1053.472656 863.265625 1085.753906 846.855469 C 1093.425781 936.75 1165.125 1010.414062 1257.875 1015.941406 C 1258.585938 1015.941406 1258.941406 1015.941406 1259.300781 1015.941406 C 1272.855469 1015.941406 1284.09375 1005.417969 1284.984375 991.863281 C 1285.519531 977.773438 1275.175781 965.644531 1261.082031 964.929688 Z M 1261.082031 964.929688 " fill-opacity="1" fill-rule="nonzero"/></svg>