<svg xmlns="http://www.w3.org/2000/svg" xmlns:xlink="http://www.w3.org/1999/xlink" width="2140" zoomAndPan="magnify" viewBox="0 0 1605.75 1598.249996" height="2131" preserveAspectRatio="xMidYMid meet" version="1.0"><defs><clipPath id="a0e519cb26"><path d="M 0.25 822 L 52 822 L 52 886 L 0.25 886 Z M 0.25 822 " clip-rule="nonzero"/></clipPath><clipPath id="148102c3ff"><path d="M 1555 775 L 1605.25 775 L 1605.25 841 L 1555 841 Z M 1555 775 " clip-rule="nonzero"/></clipPath><clipPath id="3479dfc69b"><path d="M 339 1028 L 684 1028 L 684 1597.5 L 339 1597.5 Z M 339 1028 " clip-rule="nonzero"/></clipPath><clipPath id="7b165257fb"><path d="M 923 1028 L 1268 1028 L 1268 1597.5 L 923 1597.5 Z M 923 1028 " clip-rule="nonzero"/></clipPath><clipPath id="fad035179a"><path d="M 565 1454 L 616 1454 L 616 1597.5 L 565 1597.5 Z M 565 1454 " clip-rule="nonzero"/></clipPath><clipPath id="fbc881c284"><path d="M 991 1454 L 1042 1454 L 1042 1597.5 L 991 1597.5 Z M 991 1454 " clip-rule="nonzero"/></clipPath></defs><path fill="#000000" d="M 25.3125 772.546875 C 39.097656 773.800781 51.628906 762.523438 51.628906 748.738281 C 51.628906 744.980469 51.628906 741.21875 52.882812 736.207031 C 54.136719 722.421875 44.109375 709.890625 30.328125 708.640625 C 16.542969 707.386719 4.011719 717.410156 2.757812 731.195312 C 2.757812 734.953125 1.503906 739.96875 1.503906 743.726562 C 1.503906 758.765625 11.53125 770.042969 25.3125 772.546875 Z M 25.3125 772.546875 " fill-opacity="1" fill-rule="nonzero"/><path fill="#000000" d="M 446.363281 137.214844 C 455.132812 137.214844 461.398438 132.203125 468.917969 128.445312 C 481.449219 122.179688 486.460938 107.140625 480.195312 94.609375 C 473.929688 82.078125 458.894531 77.066406 446.363281 83.332031 C 442.601562 85.839844 438.84375 87.09375 435.085938 89.597656 C 422.554688 95.863281 417.539062 110.902344 423.804688 123.433594 C 427.566406 132.203125 436.335938 137.214844 446.363281 137.214844 Z M 446.363281 137.214844 " fill-opacity="1" fill-rule="nonzero"/><path fill="#000000" d="M 659.394531 63.28125 C 660.644531 63.28125 671.925781 62.03125 675.683594 60.777344 C 689.46875 58.269531 698.238281 45.738281 695.734375 31.953125 C 693.226562 18.171875 680.695312 9.398438 666.910156 11.90625 C 663.152344 13.15625 658.140625 13.15625 654.378906 14.410156 C 640.597656 16.917969 631.824219 29.449219 634.332031 43.234375 C 638.089844 55.765625 648.113281 63.28125 659.394531 63.28125 Z M 659.394531 63.28125 " fill-opacity="1" fill-rule="nonzero"/><path fill="#000000" d="M 349.871094 196.113281 C 359.898438 196.113281 366.164062 189.847656 374.933594 184.835938 C 386.210938 177.316406 388.71875 161.027344 381.199219 149.746094 C 373.679688 138.46875 357.390625 135.964844 346.113281 143.480469 C 342.351562 145.988281 338.59375 148.496094 336.085938 151 C 324.808594 158.519531 322.304688 174.808594 329.820312 186.089844 C 333.582031 192.355469 341.101562 196.113281 349.871094 196.113281 Z M 349.871094 196.113281 " fill-opacity="1" fill-rule="nonzero"/><path fill="#000000" d="M 37.84375 659.769531 C 51.628906 662.273438 65.414062 653.503906 67.921875 639.71875 C 69.171875 635.957031 69.171875 632.199219 70.425781 627.1875 C 74.1875 614.65625 65.414062 600.871094 51.628906 598.363281 C 37.84375 594.605469 24.0625 603.378906 21.554688 617.160156 C 20.300781 620.921875 19.046875 625.933594 19.046875 629.691406 C 16.542969 643.476562 24.0625 656.007812 37.84375 659.769531 Z M 37.84375 659.769531 " fill-opacity="1" fill-rule="nonzero"/><path fill="#000000" d="M 262.152344 268.792969 C 268.417969 268.792969 274.683594 266.289062 279.699219 262.527344 C 282.203125 260.023438 285.964844 257.515625 288.46875 253.757812 C 298.496094 243.730469 299.746094 228.695312 289.722656 218.667969 C 279.699219 208.644531 264.660156 207.390625 254.636719 217.417969 C 250.875 219.921875 248.371094 223.683594 244.609375 226.1875 C 228.320312 241.226562 239.597656 268.792969 262.152344 268.792969 Z M 262.152344 268.792969 " fill-opacity="1" fill-rule="nonzero"/><path fill="#000000" d="M 772.171875 50.75 C 772.171875 50.75 780.945312 50.75 785.957031 50.75 C 799.742188 50.75 811.019531 39.472656 811.019531 25.6875 C 811.019531 11.90625 799.742188 0.625 785.957031 0.625 C 782.199219 0.625 777.1875 0.625 773.425781 0.625 C 759.640625 0.625 748.363281 13.15625 749.617188 26.941406 C 748.363281 40.726562 759.640625 50.75 772.171875 50.75 Z M 772.171875 50.75 " fill-opacity="1" fill-rule="nonzero"/><path fill="#000000" d="M 66.667969 549.492188 C 79.199219 554.503906 94.234375 548.238281 99.25 534.457031 C 100.5 530.695312 101.753906 526.9375 104.261719 523.175781 C 109.273438 510.644531 103.007812 495.609375 90.476562 490.597656 C 77.945312 485.585938 62.90625 491.851562 57.894531 504.378906 C 56.640625 508.140625 54.136719 511.898438 52.882812 516.910156 C 47.871094 530.695312 54.136719 544.480469 66.667969 549.492188 Z M 66.667969 549.492188 " fill-opacity="1" fill-rule="nonzero"/><path fill="#000000" d="M 550.371094 92.105469 C 556.636719 92.105469 564.15625 88.34375 570.421875 87.09375 C 584.207031 83.332031 590.472656 68.296875 586.710938 55.765625 C 582.953125 41.980469 567.914062 35.714844 555.382812 39.472656 C 551.625 40.726562 546.613281 41.980469 542.851562 43.234375 C 530.320312 48.246094 522.800781 62.03125 527.816406 74.5625 C 530.320312 85.839844 540.347656 92.105469 550.371094 92.105469 Z M 550.371094 92.105469 " fill-opacity="1" fill-rule="nonzero"/><path fill="#000000" d="M 1483.945312 481.824219 C 1485.199219 485.585938 1487.703125 489.34375 1488.957031 493.101562 C 1495.222656 505.632812 1510.261719 510.644531 1522.792969 505.632812 C 1535.324219 499.367188 1541.589844 485.585938 1535.324219 473.054688 C 1534.070312 469.292969 1531.5625 465.535156 1530.3125 461.773438 C 1524.046875 449.242188 1509.007812 444.230469 1496.476562 449.242188 C 1482.691406 454.257812 1477.679688 469.292969 1483.945312 481.824219 Z M 1483.945312 481.824219 " fill-opacity="1" fill-rule="nonzero"/><path fill="#000000" d="M 883.699219 54.511719 C 887.460938 54.511719 897.484375 55.765625 898.738281 55.765625 C 911.269531 55.765625 922.546875 46.992188 923.800781 33.207031 C 925.054688 19.421875 916.28125 6.890625 902.496094 5.640625 C 898.738281 5.640625 893.726562 4.386719 889.964844 4.386719 C 876.183594 3.132812 863.652344 13.15625 862.398438 26.941406 C 859.890625 40.726562 869.917969 53.257812 883.699219 54.511719 Z M 883.699219 54.511719 " fill-opacity="1" fill-rule="nonzero"/><path fill="#000000" d="M 1436.328125 395.359375 C 1445.097656 406.636719 1458.882812 410.398438 1470.160156 402.878906 C 1481.4375 395.359375 1485.199219 380.320312 1477.679688 367.789062 C 1475.171875 364.03125 1472.667969 360.273438 1470.160156 356.511719 C 1462.640625 345.234375 1446.351562 341.476562 1435.074219 348.992188 C 1423.796875 356.511719 1420.035156 372.804688 1427.554688 384.082031 C 1431.316406 389.09375 1433.820312 392.851562 1436.328125 395.359375 Z M 1436.328125 395.359375 " fill-opacity="1" fill-rule="nonzero"/><path fill="#000000" d="M 1522.792969 583.328125 C 1524.046875 587.085938 1525.296875 590.847656 1526.550781 594.605469 C 1530.3125 607.136719 1544.09375 615.910156 1557.878906 612.148438 C 1571.664062 608.390625 1579.183594 594.605469 1575.421875 580.820312 C 1574.171875 577.0625 1572.917969 572.050781 1571.664062 568.289062 C 1567.90625 554.503906 1554.121094 546.988281 1540.335938 552 C 1526.550781 557.011719 1519.03125 570.796875 1522.792969 583.328125 Z M 1522.792969 583.328125 " fill-opacity="1" fill-rule="nonzero"/><path fill="#000000" d="M 991.46875 74.5625 C 995.230469 75.8125 1007.761719 78.320312 1010.265625 78.320312 C 1021.542969 78.320312 1031.570312 70.800781 1034.074219 59.523438 C 1037.835938 45.738281 1030.316406 31.953125 1016.53125 28.195312 C 1012.773438 26.941406 1007.761719 25.6875 1004 24.4375 C 990.214844 20.675781 976.433594 29.449219 973.925781 41.980469 C 970.167969 57.015625 977.683594 70.800781 991.46875 74.5625 Z M 991.46875 74.5625 " fill-opacity="1" fill-rule="nonzero"/><path fill="#000000" d="M 1193.222656 159.773438 C 1196.980469 162.277344 1200.742188 163.53125 1203.246094 166.039062 C 1214.523438 173.558594 1230.816406 169.796875 1238.335938 158.519531 C 1245.851562 147.242188 1242.09375 130.949219 1230.816406 123.433594 C 1227.054688 120.925781 1223.296875 118.417969 1219.539062 117.167969 C 1207.007812 109.648438 1191.96875 113.40625 1184.449219 124.683594 C 1178.183594 137.214844 1181.945312 152.253906 1193.222656 159.773438 Z M 1193.222656 159.773438 " fill-opacity="1" fill-rule="nonzero"/><path fill="#000000" d="M 1095.476562 109.648438 C 1099.238281 110.902344 1113.023438 117.167969 1116.78125 117.167969 C 1126.804688 117.167969 1135.578125 112.15625 1139.335938 102.128906 C 1144.351562 89.597656 1139.335938 74.5625 1126.804688 69.546875 C 1123.046875 68.296875 1119.289062 65.789062 1114.273438 64.535156 C 1101.742188 59.523438 1086.707031 64.535156 1081.695312 78.320312 C 1076.679688 89.597656 1082.945312 104.636719 1095.476562 109.648438 Z M 1095.476562 109.648438 " fill-opacity="1" fill-rule="nonzero"/><path fill="#000000" d="M 1567.90625 662.273438 C 1554.121094 664.78125 1545.347656 677.3125 1546.601562 691.09375 C 1546.601562 694.855469 1547.855469 698.613281 1547.855469 703.625 C 1549.109375 717.410156 1562.890625 726.183594 1575.421875 724.929688 C 1589.207031 723.675781 1599.234375 709.890625 1596.726562 697.359375 C 1596.726562 693.601562 1595.472656 688.589844 1595.472656 684.828125 C 1594.21875 669.792969 1581.6875 659.769531 1567.90625 662.273438 Z M 1567.90625 662.273438 " fill-opacity="1" fill-rule="nonzero"/><path fill="#000000" d="M 1369.910156 308.894531 C 1378.683594 318.917969 1394.972656 320.171875 1405 311.398438 C 1415.023438 302.628906 1416.277344 286.339844 1407.503906 276.3125 C 1405 272.554688 1401.238281 270.046875 1398.734375 266.289062 C 1389.960938 256.261719 1373.671875 255.011719 1363.644531 265.035156 C 1353.621094 273.808594 1352.367188 290.097656 1362.394531 300.121094 C 1364.898438 302.628906 1367.40625 305.132812 1369.910156 308.894531 Z M 1369.910156 308.894531 " fill-opacity="1" fill-rule="nonzero"/><g clip-path="url(#a0e519cb26)"><path fill="#000000" d="M 29.074219 885.328125 C 42.859375 884.074219 52.882812 871.546875 51.628906 859.015625 C 51.628906 855.253906 51.628906 851.496094 50.375 846.484375 C 49.125 832.699219 37.84375 822.671875 24.0625 822.671875 C 10.277344 823.925781 0.25 835.203125 0.25 848.988281 C 0.25 852.75 0.25 857.761719 1.503906 861.519531 C 4.011719 875.304688 15.289062 886.582031 29.074219 885.328125 Z M 29.074219 885.328125 " fill-opacity="1" fill-rule="nonzero"/></g><path fill="#000000" d="M 1465.148438 1209.886719 C 1453.871094 1202.367188 1437.582031 1204.875 1430.0625 1217.40625 C 1427.554688 1221.164062 1425.050781 1223.671875 1423.796875 1227.429688 C 1416.277344 1238.710938 1418.785156 1255 1430.0625 1262.519531 C 1441.339844 1270.035156 1457.628906 1267.53125 1465.148438 1256.253906 C 1467.65625 1252.492188 1470.160156 1248.734375 1472.667969 1244.976562 C 1480.1875 1233.695312 1476.425781 1217.40625 1465.148438 1209.886719 Z M 1465.148438 1209.886719 " fill-opacity="1" fill-rule="nonzero"/><path fill="#000000" d="M 1308.507812 237.464844 C 1316.027344 237.464844 1322.292969 234.960938 1327.304688 228.695312 C 1336.078125 218.667969 1334.824219 202.378906 1324.800781 193.605469 C 1321.039062 191.101562 1318.535156 187.339844 1314.773438 184.835938 C 1303.496094 176.0625 1288.457031 177.316406 1279.6875 188.59375 C 1270.914062 199.871094 1272.167969 214.910156 1283.445312 223.683594 C 1290.964844 229.949219 1297.230469 237.464844 1308.507812 237.464844 Z M 1308.507812 237.464844 " fill-opacity="1" fill-rule="nonzero"/><path fill="#000000" d="M 1363.644531 1303.871094 C 1361.140625 1306.378906 1358.632812 1310.136719 1354.875 1312.644531 C 1344.847656 1322.667969 1346.101562 1338.957031 1356.128906 1347.730469 C 1366.152344 1356.503906 1382.441406 1356.503906 1391.214844 1346.476562 C 1393.722656 1342.71875 1397.480469 1340.210938 1399.988281 1336.453125 C 1408.757812 1326.425781 1408.757812 1310.136719 1397.480469 1301.363281 C 1388.707031 1292.59375 1372.417969 1293.847656 1363.644531 1303.871094 Z M 1363.644531 1303.871094 " fill-opacity="1" fill-rule="nonzero"/><path fill="#000000" d="M 1555.375 1001.871094 C 1541.589844 998.109375 1527.804688 1005.628906 1524.046875 1018.160156 C 1522.792969 1021.917969 1521.539062 1025.679688 1520.285156 1029.4375 C 1516.527344 1043.222656 1522.792969 1057.007812 1536.578125 1060.765625 C 1549.109375 1064.527344 1564.144531 1057.007812 1567.90625 1044.476562 C 1569.15625 1040.714844 1570.410156 1035.703125 1571.664062 1031.945312 C 1575.421875 1020.667969 1567.90625 1006.882812 1555.375 1001.871094 Z M 1555.375 1001.871094 " fill-opacity="1" fill-rule="nonzero"/><g clip-path="url(#148102c3ff)"><path fill="#000000" d="M 1580.4375 775.054688 C 1566.652344 775.054688 1555.375 786.332031 1555.375 800.117188 C 1555.375 800.117188 1555.375 810.140625 1555.375 815.15625 C 1555.375 828.9375 1566.652344 840.21875 1580.4375 840.21875 C 1594.21875 840.21875 1605.5 828.9375 1605.5 815.15625 C 1605.5 811.394531 1605.5 800.117188 1605.5 800.117188 C 1605.5 786.332031 1594.21875 775.054688 1580.4375 775.054688 Z M 1580.4375 775.054688 " fill-opacity="1" fill-rule="nonzero"/></g><path fill="#000000" d="M 1575.421875 890.339844 C 1561.640625 887.835938 1549.109375 897.859375 1546.601562 911.644531 C 1546.601562 915.402344 1545.347656 919.164062 1545.347656 924.175781 C 1542.84375 939.214844 1555.375 952.996094 1570.410156 952.996094 C 1582.941406 952.996094 1592.96875 944.226562 1595.472656 931.695312 C 1596.726562 927.933594 1596.726562 922.921875 1597.980469 919.164062 C 1599.234375 905.378906 1589.207031 892.847656 1575.421875 890.339844 Z M 1575.421875 890.339844 " fill-opacity="1" fill-rule="nonzero"/><path fill="#000000" d="M 1517.78125 1109.636719 C 1505.25 1103.371094 1490.210938 1109.636719 1483.945312 1122.167969 C 1482.691406 1125.929688 1480.1875 1129.6875 1478.933594 1133.445312 C 1472.667969 1145.976562 1477.679688 1161.015625 1490.210938 1167.28125 C 1502.742188 1173.546875 1517.78125 1168.535156 1524.046875 1156.003906 C 1526.550781 1152.242188 1527.804688 1148.484375 1530.3125 1144.726562 C 1535.324219 1130.941406 1530.3125 1115.902344 1517.78125 1109.636719 Z M 1517.78125 1109.636719 " fill-opacity="1" fill-rule="nonzero"/><path fill="#000000" d="M 100.5 1072.042969 C 99.25 1068.285156 97.996094 1064.527344 96.742188 1060.765625 C 91.730469 1048.234375 76.691406 1040.714844 64.160156 1045.730469 C 51.628906 1050.742188 44.109375 1064.527344 49.125 1078.308594 C 50.375 1082.070312 51.628906 1087.082031 54.136719 1090.839844 C 59.148438 1103.371094 74.1875 1109.636719 86.71875 1104.625 C 99.25 1099.613281 105.515625 1084.574219 100.5 1072.042969 Z M 100.5 1072.042969 " fill-opacity="1" fill-rule="nonzero"/><path fill="#000000" d="M 143.105469 390.347656 C 130.574219 382.828125 115.539062 387.839844 109.273438 399.117188 C 106.765625 402.878906 105.515625 406.636719 103.007812 410.398438 C 96.742188 422.929688 100.5 437.964844 113.03125 444.230469 C 125.5625 450.496094 140.601562 446.738281 146.867188 434.207031 C 149.371094 430.445312 150.625 426.6875 153.132812 424.179688 C 159.398438 412.902344 154.386719 397.867188 143.105469 390.347656 Z M 143.105469 390.347656 " fill-opacity="1" fill-rule="nonzero"/><path fill="#000000" d="M 140.601562 1161.015625 C 134.335938 1148.484375 119.296875 1144.726562 106.765625 1150.992188 C 94.234375 1157.257812 90.476562 1172.292969 96.742188 1184.824219 C 99.25 1188.585938 100.5 1192.34375 103.007812 1196.101562 C 109.273438 1207.382812 125.5625 1212.394531 136.839844 1206.128906 C 149.371094 1199.863281 153.132812 1183.570312 146.867188 1172.292969 C 144.359375 1167.28125 143.105469 1164.773438 140.601562 1161.015625 Z M 140.601562 1161.015625 " fill-opacity="1" fill-rule="nonzero"/><path fill="#000000" d="M 67.921875 966.78125 C 66.667969 963.023438 66.667969 959.261719 65.414062 954.25 C 62.90625 940.464844 49.125 931.695312 35.339844 934.199219 C 22.808594 937.960938 14.035156 951.746094 16.542969 965.527344 C 17.796875 969.289062 17.796875 974.300781 19.046875 978.058594 C 21.554688 991.84375 35.339844 999.363281 49.125 996.855469 C 62.90625 994.351562 71.679688 980.566406 67.921875 966.78125 Z M 67.921875 966.78125 " fill-opacity="1" fill-rule="nonzero"/><path fill="#000000" d="M 200.75 1252.492188 C 191.980469 1241.214844 176.941406 1238.710938 165.664062 1247.480469 C 154.386719 1256.253906 151.878906 1271.289062 160.652344 1282.566406 C 163.15625 1286.328125 165.664062 1288.832031 168.167969 1292.59375 C 176.941406 1303.871094 191.980469 1305.125 203.257812 1297.605469 C 214.535156 1288.832031 215.789062 1273.796875 208.269531 1262.519531 C 205.761719 1260.011719 203.257812 1256.253906 200.75 1252.492188 Z M 200.75 1252.492188 " fill-opacity="1" fill-rule="nonzero"/><path fill="#000000" d="M 272.179688 1335.199219 C 262.152344 1325.175781 247.117188 1325.175781 237.089844 1335.199219 C 227.066406 1345.222656 227.066406 1360.261719 237.089844 1370.285156 C 239.597656 1372.792969 243.355469 1376.550781 245.863281 1379.058594 C 255.886719 1389.082031 272.179688 1387.832031 280.949219 1377.804688 C 290.976562 1367.78125 289.722656 1351.488281 279.699219 1342.71875 C 278.445312 1341.464844 274.683594 1338.957031 272.179688 1335.199219 Z M 272.179688 1335.199219 " fill-opacity="1" fill-rule="nonzero"/><path fill="#000000" d="M 170.675781 348.992188 C 181.953125 357.765625 196.992188 355.257812 205.761719 343.980469 C 208.269531 340.222656 210.777344 337.714844 213.28125 333.957031 C 222.054688 322.679688 219.546875 307.640625 209.523438 298.871094 C 198.246094 290.097656 183.207031 292.605469 174.433594 302.628906 C 171.929688 306.386719 169.421875 308.894531 166.917969 312.652344 C 158.144531 323.929688 160.652344 340.222656 170.675781 348.992188 Z M 170.675781 348.992188 " fill-opacity="1" fill-rule="nonzero"/><path fill="#000000" d="M 1054.125 802.625 C 1054.125 664.78125 941.34375 552 803.5 552 C 665.660156 552 552.878906 664.78125 552.878906 802.625 C 552.878906 940.464844 665.660156 1053.246094 803.5 1053.246094 C 941.34375 1053.246094 1054.125 940.464844 1054.125 802.625 Z M 802.25 1003.121094 C 691.972656 1003.121094 601.75 912.898438 601.75 802.625 C 601.75 692.347656 691.972656 602.125 802.25 602.125 C 912.523438 602.125 1002.746094 692.347656 1002.746094 802.625 C 1004 912.898438 913.777344 1003.121094 802.25 1003.121094 Z M 802.25 1003.121094 " fill-opacity="1" fill-rule="nonzero"/><g clip-path="url(#3479dfc69b)"><path fill="#000000" d="M 604.253906 1028.183594 C 457.640625 1028.183594 339.847656 1148.484375 339.847656 1296.351562 L 339.847656 1579.558594 C 339.847656 1593.34375 351.125 1604.621094 364.910156 1604.621094 C 378.695312 1604.621094 389.972656 1593.34375 389.972656 1579.558594 L 389.972656 1296.351562 C 389.972656 1176.054688 485.210938 1078.308594 604.253906 1078.308594 L 683.203125 1078.308594 C 654.378906 1065.777344 628.066406 1048.234375 604.253906 1028.183594 Z M 604.253906 1028.183594 " fill-opacity="1" fill-rule="nonzero"/></g><g clip-path="url(#7b165257fb)"><path fill="#000000" d="M 1002.746094 1028.183594 C 978.9375 1048.234375 952.621094 1065.777344 923.800781 1078.308594 L 1002.746094 1078.308594 C 1120.539062 1078.308594 1217.03125 1176.054688 1217.03125 1296.351562 L 1217.03125 1579.558594 C 1217.03125 1593.34375 1228.308594 1604.621094 1242.09375 1604.621094 C 1255.878906 1604.621094 1267.15625 1593.34375 1267.15625 1579.558594 L 1267.15625 1296.351562 C 1267.15625 1148.484375 1149.363281 1028.183594 1002.746094 1028.183594 Z M 1002.746094 1028.183594 " fill-opacity="1" fill-rule="nonzero"/></g><g clip-path="url(#fad035179a)"><path fill="#000000" d="M 590.472656 1454.246094 C 576.6875 1454.246094 565.410156 1465.523438 565.410156 1479.308594 L 565.410156 1579.558594 C 565.410156 1593.34375 576.6875 1604.621094 590.472656 1604.621094 C 604.253906 1604.621094 615.535156 1593.34375 615.535156 1579.558594 L 615.535156 1479.308594 C 615.535156 1465.523438 604.253906 1454.246094 590.472656 1454.246094 Z M 590.472656 1454.246094 " fill-opacity="1" fill-rule="nonzero"/></g><g clip-path="url(#fbc881c284)"><path fill="#000000" d="M 1016.53125 1454.246094 C 1002.746094 1454.246094 991.46875 1465.523438 991.46875 1479.308594 L 991.46875 1579.558594 C 991.46875 1593.34375 1002.746094 1604.621094 1016.53125 1604.621094 C 1030.316406 1604.621094 1041.59375 1593.34375 1041.59375 1579.558594 L 1041.59375 1479.308594 C 1041.59375 1465.523438 1030.316406 1454.246094 1016.53125 1454.246094 Z M 1016.53125 1454.246094 " fill-opacity="1" fill-rule="nonzero"/></g><path fill="#000000" d="M 854.878906 228.695312 C 858.640625 228.695312 868.664062 229.949219 869.917969 229.949219 C 882.449219 229.949219 893.726562 219.921875 894.980469 207.390625 C 896.230469 193.605469 886.207031 181.074219 872.421875 179.824219 C 868.664062 179.824219 863.652344 178.570312 859.890625 178.570312 C 846.109375 177.316406 833.578125 187.339844 832.324219 201.125 C 829.816406 214.910156 841.09375 227.441406 854.878906 228.695312 Z M 854.878906 228.695312 " fill-opacity="1" fill-rule="nonzero"/><path fill="#000000" d="M 745.859375 228.695312 C 747.109375 228.695312 755.882812 227.441406 759.640625 227.441406 C 773.425781 226.1875 783.453125 214.910156 782.199219 201.125 C 780.945312 187.339844 769.667969 177.316406 755.882812 178.570312 C 752.125 178.570312 747.109375 179.824219 743.351562 179.824219 C 729.566406 181.074219 719.542969 193.605469 720.796875 207.390625 C 722.046875 218.667969 733.328125 228.695312 745.859375 228.695312 Z M 745.859375 228.695312 " fill-opacity="1" fill-rule="nonzero"/><path fill="#000000" d="M 958.886719 247.492188 C 962.648438 248.746094 975.179688 252.503906 977.683594 252.503906 C 988.964844 252.503906 998.988281 244.984375 1001.496094 234.960938 C 1005.253906 221.175781 997.734375 207.390625 985.203125 203.632812 C 981.445312 202.378906 976.433594 201.125 972.671875 199.871094 C 958.886719 196.113281 945.105469 203.632812 941.34375 217.417969 C 937.585938 229.949219 945.105469 243.730469 958.886719 247.492188 Z M 958.886719 247.492188 " fill-opacity="1" fill-rule="nonzero"/><path fill="#000000" d="M 636.835938 248.746094 C 643.101562 248.746094 649.367188 246.238281 655.632812 244.984375 C 669.417969 241.226562 676.9375 227.441406 673.175781 214.910156 C 669.417969 201.125 655.632812 193.605469 643.101562 197.367188 C 639.34375 198.621094 634.332031 199.871094 630.570312 201.125 C 616.785156 204.886719 609.269531 218.667969 613.027344 232.453125 C 615.535156 242.480469 625.558594 248.746094 636.835938 248.746094 Z M 636.835938 248.746094 " fill-opacity="1" fill-rule="nonzero"/><path fill="#000000" d="M 532.828125 290.097656 C 540.347656 290.097656 547.863281 285.085938 554.128906 282.578125 C 566.660156 276.3125 571.675781 261.277344 565.410156 248.746094 C 559.144531 236.214844 544.105469 231.199219 531.574219 237.464844 C 527.816406 238.71875 524.054688 241.226562 520.296875 242.480469 C 507.765625 248.746094 502.753906 263.78125 509.019531 276.3125 C 515.285156 285.085938 524.054688 290.097656 532.828125 290.097656 Z M 532.828125 290.097656 " fill-opacity="1" fill-rule="nonzero"/><path fill="#000000" d="M 1057.886719 285.085938 C 1061.644531 286.339844 1065.402344 288.84375 1069.164062 290.097656 C 1081.695312 296.363281 1096.730469 291.351562 1102.996094 278.820312 C 1109.261719 266.289062 1104.25 251.25 1091.71875 244.984375 C 1087.960938 242.480469 1084.199219 241.226562 1080.441406 238.71875 C 1067.910156 232.453125 1052.871094 237.464844 1046.605469 249.996094 C 1040.339844 263.78125 1045.355469 278.820312 1057.886719 285.085938 Z M 1057.886719 285.085938 " fill-opacity="1" fill-rule="nonzero"/><path fill="#000000" d="M 1264.648438 379.070312 C 1255.878906 369.042969 1239.585938 367.789062 1229.5625 377.816406 C 1219.539062 386.585938 1218.285156 402.878906 1228.308594 412.902344 C 1230.816406 415.410156 1233.320312 419.167969 1235.828125 421.675781 C 1244.601562 431.699219 1260.890625 432.953125 1270.914062 424.179688 C 1280.941406 415.410156 1282.191406 399.117188 1273.421875 389.09375 C 1270.914062 385.335938 1267.15625 381.574219 1264.648438 379.070312 Z M 1264.648438 379.070312 " fill-opacity="1" fill-rule="nonzero"/><path fill="#000000" d="M 1339.835938 592.097656 C 1341.089844 595.859375 1342.34375 599.617188 1343.597656 603.378906 C 1348.609375 615.910156 1363.644531 623.425781 1376.175781 618.414062 C 1388.707031 613.402344 1396.226562 599.617188 1391.214844 585.832031 C 1389.960938 582.074219 1388.707031 578.316406 1386.203125 573.300781 C 1381.191406 560.769531 1366.152344 554.503906 1353.621094 559.519531 C 1341.089844 564.53125 1334.824219 579.566406 1339.835938 592.097656 Z M 1339.835938 592.097656 " fill-opacity="1" fill-rule="nonzero"/><path fill="#000000" d="M 1149.363281 341.476562 C 1153.121094 343.980469 1155.628906 346.488281 1159.386719 348.992188 C 1170.664062 357.765625 1185.703125 355.257812 1194.476562 345.234375 C 1203.246094 333.957031 1200.742188 318.917969 1190.714844 310.148438 C 1186.957031 307.640625 1184.449219 305.136719 1180.691406 302.628906 C 1169.414062 293.855469 1154.375 296.363281 1145.601562 307.640625 C 1135.578125 317.664062 1138.085938 332.703125 1149.363281 341.476562 Z M 1149.363281 341.476562 " fill-opacity="1" fill-rule="nonzero"/><path fill="#000000" d="M 1389.960938 664.78125 C 1376.175781 667.285156 1367.40625 681.070312 1369.910156 693.601562 C 1371.164062 697.359375 1371.164062 701.121094 1372.417969 704.878906 C 1374.925781 718.664062 1387.457031 727.4375 1401.238281 724.929688 C 1415.023438 722.421875 1423.796875 709.890625 1421.289062 696.109375 C 1420.035156 692.347656 1420.035156 687.335938 1418.785156 683.578125 C 1416.277344 671.046875 1403.746094 662.273438 1389.960938 664.78125 Z M 1389.960938 664.78125 " fill-opacity="1" fill-rule="nonzero"/><path fill="#000000" d="M 1299.738281 463.027344 C 1288.457031 470.546875 1284.699219 485.585938 1292.21875 498.113281 C 1294.722656 501.875 1295.976562 504.378906 1298.484375 508.140625 C 1306.003906 519.417969 1321.039062 524.429688 1332.316406 516.910156 C 1344.847656 509.394531 1348.609375 494.355469 1341.089844 483.078125 C 1338.582031 479.320312 1336.078125 475.558594 1334.824219 471.800781 C 1327.304688 459.269531 1312.269531 455.507812 1299.738281 463.027344 Z M 1299.738281 463.027344 " fill-opacity="1" fill-rule="nonzero"/><path fill="#000000" d="M 438.84375 347.742188 C 448.867188 347.742188 456.386719 341.476562 463.90625 335.210938 C 475.183594 326.4375 477.691406 311.398438 468.917969 300.121094 C 460.148438 288.84375 445.109375 286.339844 433.832031 295.109375 C 430.070312 297.617188 427.566406 300.121094 423.804688 302.628906 C 412.527344 311.402344 410.023438 326.4375 418.792969 337.714844 C 423.804688 345.234375 431.324219 347.742188 438.84375 347.742188 Z M 438.84375 347.742188 " fill-opacity="1" fill-rule="nonzero"/><path fill="#000000" d="M 1398.734375 887.835938 C 1384.949219 885.328125 1372.417969 894.101562 1369.910156 907.886719 C 1368.660156 911.644531 1368.660156 915.402344 1367.40625 919.164062 C 1364.898438 932.949219 1373.671875 945.480469 1387.457031 949.238281 C 1401.238281 951.746094 1413.769531 942.972656 1417.53125 929.1875 C 1418.785156 925.429688 1418.785156 920.417969 1420.035156 916.65625 C 1421.289062 904.125 1412.519531 890.339844 1398.734375 887.835938 Z M 1398.734375 887.835938 " fill-opacity="1" fill-rule="nonzero"/><path fill="#000000" d="M 1328.558594 1098.359375 C 1317.28125 1090.839844 1300.988281 1094.601562 1293.472656 1105.878906 C 1290.964844 1109.636719 1289.710938 1112.144531 1287.207031 1115.902344 C 1279.6875 1127.179688 1283.445312 1143.472656 1294.722656 1150.992188 C 1306.003906 1158.507812 1322.292969 1154.75 1329.8125 1143.472656 C 1332.316406 1139.710938 1334.824219 1135.953125 1337.332031 1132.195312 C 1343.597656 1120.914062 1339.835938 1104.625 1328.558594 1098.359375 Z M 1328.558594 1098.359375 " fill-opacity="1" fill-rule="nonzero"/><path fill="#000000" d="M 306.011719 1097.105469 C 298.496094 1085.828125 283.457031 1080.816406 272.179688 1088.335938 C 260.902344 1095.851562 255.886719 1110.890625 263.40625 1122.167969 C 265.914062 1125.929688 268.417969 1129.6875 269.671875 1133.445312 C 277.191406 1144.726562 292.230469 1148.484375 304.757812 1140.964844 C 316.039062 1133.445312 319.796875 1118.410156 312.277344 1105.878906 C 311.023438 1103.371094 308.519531 1099.613281 306.011719 1097.105469 Z M 306.011719 1097.105469 " fill-opacity="1" fill-rule="nonzero"/><path fill="#000000" d="M 1379.9375 800.117188 C 1379.9375 800.117188 1379.9375 810.140625 1379.9375 813.902344 C 1381.191406 840.21875 1405 838.964844 1405 838.964844 C 1418.785156 838.964844 1430.0625 827.6875 1430.0625 813.902344 C 1430.0625 810.140625 1430.0625 798.863281 1430.0625 798.863281 C 1430.0625 785.078125 1418.785156 773.800781 1405 773.800781 C 1391.214844 773.800781 1379.9375 786.332031 1379.9375 800.117188 Z M 1379.9375 800.117188 " fill-opacity="1" fill-rule="nonzero"/><path fill="#000000" d="M 250.875 1044.476562 C 263.40625 1039.464844 269.671875 1024.425781 264.660156 1011.894531 C 263.40625 1008.136719 262.152344 1004.375 260.902344 1000.617188 C 255.886719 988.085938 242.105469 980.566406 228.320312 985.578125 C 215.789062 990.589844 208.269531 1004.375 213.28125 1018.160156 C 214.535156 1021.917969 215.789062 1025.679688 218.292969 1030.691406 C 222.054688 1040.714844 232.078125 1046.980469 242.105469 1046.980469 C 244.609375 1045.730469 248.371094 1045.730469 250.875 1044.476562 Z M 250.875 1044.476562 " fill-opacity="1" fill-rule="nonzero"/><path fill="#000000" d="M 1359.886719 1055.753906 C 1369.910156 1055.753906 1378.683594 1049.488281 1383.695312 1040.714844 C 1384.949219 1036.957031 1387.457031 1033.199219 1388.707031 1028.183594 C 1393.722656 1015.652344 1387.457031 1000.617188 1374.925781 995.605469 C 1362.394531 990.589844 1347.355469 996.855469 1342.34375 1009.386719 C 1341.089844 1013.148438 1339.835938 1016.90625 1337.332031 1020.667969 C 1329.8125 1038.210938 1342.34375 1057.007812 1359.886719 1055.753906 Z M 1359.886719 1055.753906 " fill-opacity="1" fill-rule="nonzero"/><path fill="#000000" d="M 311.023438 455.507812 C 299.746094 447.992188 283.457031 451.75 275.9375 463.027344 C 273.433594 466.789062 270.925781 470.546875 268.417969 474.304688 C 260.902344 485.585938 264.660156 501.875 277.191406 509.394531 C 288.46875 516.910156 304.761719 513.152344 312.277344 500.621094 C 314.785156 496.863281 316.039062 494.355469 318.542969 490.597656 C 326.0625 478.066406 322.304688 463.027344 311.023438 455.507812 Z M 311.023438 455.507812 " fill-opacity="1" fill-rule="nonzero"/><path fill="#000000" d="M 232.078125 609.644531 C 244.609375 614.65625 259.648438 608.390625 264.660156 595.859375 C 265.914062 592.097656 267.167969 588.339844 268.417969 584.582031 C 273.433594 572.050781 267.167969 557.011719 254.636719 552 C 242.105469 546.988281 227.066406 553.253906 222.054688 565.785156 C 220.800781 569.542969 218.292969 573.300781 217.042969 578.316406 C 212.027344 590.847656 219.546875 604.628906 232.078125 609.644531 Z M 232.078125 609.644531 " fill-opacity="1" fill-rule="nonzero"/><path fill="#000000" d="M 357.390625 422.929688 C 369.921875 422.929688 376.1875 414.15625 383.707031 406.636719 C 393.730469 396.613281 392.476562 380.320312 382.453125 371.550781 C 372.429688 361.523438 356.136719 362.777344 347.367188 372.804688 C 344.859375 376.5625 341.101562 379.070312 338.59375 382.828125 C 329.820312 392.851562 329.820312 409.144531 339.847656 417.914062 C 344.859375 421.675781 351.125 422.929688 357.390625 422.929688 Z M 357.390625 422.929688 " fill-opacity="1" fill-rule="nonzero"/><path fill="#000000" d="M 218.292969 656.007812 C 204.511719 653.503906 191.980469 662.273438 188.21875 676.058594 C 186.964844 679.816406 186.964844 684.828125 185.714844 688.589844 C 183.207031 702.375 191.980469 714.90625 205.761719 717.410156 C 219.546875 719.917969 232.078125 711.144531 234.585938 697.359375 C 235.839844 693.601562 235.839844 689.84375 237.089844 686.082031 C 240.851562 672.300781 232.078125 659.769531 218.292969 656.007812 Z M 218.292969 656.007812 " fill-opacity="1" fill-rule="nonzero"/><path fill="#000000" d="M 186.964844 919.164062 C 189.472656 932.949219 203.257812 941.71875 215.789062 939.214844 C 229.574219 936.707031 238.34375 922.921875 235.839844 910.390625 C 234.585938 906.632812 234.585938 902.871094 233.332031 899.113281 C 230.824219 885.328125 218.292969 876.558594 204.511719 879.0625 C 190.726562 881.570312 181.953125 894.101562 184.460938 907.886719 C 184.460938 910.390625 185.714844 914.152344 186.964844 919.164062 Z M 186.964844 919.164062 " fill-opacity="1" fill-rule="nonzero"/><path fill="#000000" d="M 225.8125 802.625 C 225.8125 798.863281 225.8125 795.105469 225.8125 791.34375 C 225.8125 777.5625 214.535156 766.28125 200.75 766.28125 C 186.964844 766.28125 175.6875 777.5625 175.6875 791.34375 C 175.6875 795.105469 175.6875 798.863281 175.6875 802.625 L 175.6875 803.875 C 175.6875 817.660156 186.964844 828.9375 200.75 828.9375 C 214.535156 827.6875 225.8125 816.40625 225.8125 802.625 Z M 225.8125 802.625 " fill-opacity="1" fill-rule="nonzero"/></svg>