<svg xmlns="http://www.w3.org/2000/svg" xmlns:xlink="http://www.w3.org/1999/xlink" width="2140" zoomAndPan="magnify" viewBox="0 0 1605.75 1850.249989" height="2467" preserveAspectRatio="xMidYMid meet" version="1.0"><defs><clipPath id="6a9f42437b"><path d="M 0.199219 0 L 1602.550781 0 L 1602.550781 1849.5 L 0.199219 1849.5 Z M 0.199219 0 " clip-rule="nonzero"/></clipPath></defs><g clip-path="url(#6a9f42437b)"><path fill="#000000" d="M 1571.734375 0.445312 L 400.789062 0.445312 C 383.777344 0.445312 369.972656 14.21875 369.972656 31.257812 L 369.972656 185.332031 L 215.902344 185.332031 C 198.890625 185.332031 185.085938 199.109375 185.085938 216.148438 L 185.085938 370.222656 L 31.015625 370.222656 C 14.003906 370.222656 0.199219 384 0.199219 401.039062 L 0.199219 1818.527344 C 0.199219 1835.570312 14.003906 1849.34375 31.015625 1849.34375 L 1201.960938 1849.34375 C 1218.972656 1849.34375 1232.777344 1835.570312 1232.777344 1818.527344 L 1232.777344 1664.453125 L 1386.847656 1664.453125 C 1403.859375 1664.453125 1417.664062 1650.679688 1417.664062 1633.640625 L 1417.664062 1479.5625 L 1571.734375 1479.5625 C 1588.746094 1479.5625 1602.550781 1465.789062 1602.550781 1448.75 L 1602.550781 31.257812 C 1602.550781 14.21875 1588.746094 0.445312 1571.734375 0.445312 Z M 1171.148438 1787.714844 L 61.828125 1787.714844 L 61.828125 431.855469 L 1171.148438 431.855469 Z M 1356.035156 1602.824219 L 1232.777344 1602.824219 L 1232.777344 401.039062 C 1232.777344 384 1218.972656 370.222656 1201.960938 370.222656 L 246.714844 370.222656 L 246.714844 246.964844 L 1356.035156 246.964844 Z M 1540.921875 1417.933594 L 1417.664062 1417.933594 L 1417.664062 216.148438 C 1417.664062 199.109375 1403.859375 185.332031 1386.847656 185.332031 L 431.601562 185.332031 L 431.601562 62.074219 L 1540.921875 62.074219 Z M 1540.921875 1417.933594 " fill-opacity="1" fill-rule="nonzero"/></g><path fill="#000000" d="M 246.714844 758.0625 L 176.058594 687.402344 L 132.488281 730.976562 L 224.929688 823.421875 C 230.9375 829.429688 238.828125 832.449219 246.714844 832.449219 C 254.605469 832.449219 262.492188 829.429688 268.5 823.421875 L 453.386719 638.53125 L 409.816406 594.957031 Z M 246.714844 758.0625 " fill-opacity="1" fill-rule="nonzero"/><path fill="#000000" d="M 246.714844 1559.25 L 176.058594 1488.59375 L 132.488281 1532.164062 L 224.929688 1624.609375 C 230.9375 1630.621094 238.828125 1633.640625 246.714844 1633.640625 C 254.605469 1633.640625 262.492188 1630.621094 268.5 1624.609375 L 453.386719 1439.71875 L 409.816406 1396.148438 Z M 246.714844 1559.25 " fill-opacity="1" fill-rule="nonzero"/><path fill="#000000" d="M 409.816406 995.554688 L 308.34375 1097.027344 L 206.871094 995.554688 L 163.300781 1039.125 L 264.773438 1140.597656 L 163.300781 1242.074219 L 206.871094 1285.644531 L 308.34375 1184.171875 L 409.816406 1285.644531 L 453.386719 1242.074219 L 351.917969 1140.597656 L 453.386719 1039.125 Z M 409.816406 995.554688 " fill-opacity="1" fill-rule="nonzero"/><path fill="#000000" d="M 554.859375 678.375 L 1078.703125 678.375 L 1078.703125 740.003906 L 554.859375 740.003906 Z M 554.859375 678.375 " fill-opacity="1" fill-rule="nonzero"/><path fill="#000000" d="M 554.859375 1078.96875 L 1078.703125 1078.96875 L 1078.703125 1140.597656 L 554.859375 1140.597656 Z M 554.859375 1078.96875 " fill-opacity="1" fill-rule="nonzero"/><path fill="#000000" d="M 554.859375 1479.5625 L 1078.703125 1479.5625 L 1078.703125 1541.195312 L 554.859375 1541.195312 Z M 554.859375 1479.5625 " fill-opacity="1" fill-rule="nonzero"/><path fill="#000000" d="M 1017.078125 1664.453125 L 1078.703125 1664.453125 L 1078.703125 1726.085938 L 1017.078125 1726.085938 Z M 1017.078125 1664.453125 " fill-opacity="1" fill-rule="nonzero"/><path fill="#000000" d="M 893.820312 1664.453125 L 955.449219 1664.453125 L 955.449219 1726.085938 L 893.820312 1726.085938 Z M 893.820312 1664.453125 " fill-opacity="1" fill-rule="nonzero"/><path fill="#000000" d="M 770.5625 1664.453125 L 832.191406 1664.453125 L 832.191406 1726.085938 L 770.5625 1726.085938 Z M 770.5625 1664.453125 " fill-opacity="1" fill-rule="nonzero"/></svg>