<svg xmlns="http://www.w3.org/2000/svg" xmlns:xlink="http://www.w3.org/1999/xlink" width="2140" zoomAndPan="magnify" viewBox="0 0 1605.75 1598.249996" height="2131" preserveAspectRatio="xMidYMid meet" version="1.0"><defs><clipPath id="d9b4c65209"><path d="M 42 0 L 1564 0 L 1564 1597.5 L 42 1597.5 Z M 42 0 " clip-rule="nonzero"/></clipPath></defs><path fill="#100f0d" d="M 351.179688 626.953125 C 350.773438 642.027344 362.679688 654.609375 377.777344 655.035156 C 378.777344 655.066406 479.847656 658.402344 560.761719 712.296875 C 565.421875 715.398438 570.691406 716.886719 575.890625 716.886719 C 584.734375 716.886719 593.40625 712.617188 598.675781 704.726562 C 607.0625 692.140625 603.675781 675.1875 591.085938 666.804688 C 497.230469 604.257812 384.042969 600.496094 379.265625 600.363281 C 364.394531 601.054688 351.601562 611.828125 351.179688 626.953125 " fill-opacity="1" fill-rule="nonzero"/><g clip-path="url(#d9b4c65209)"><path fill="#100f0d" d="M 1548.46875 942.316406 L 1390.574219 677.746094 C 1405.90625 621.175781 1459.171875 383.027344 1326.753906 202.398438 C 1228.242188 68.023438 1052.015625 -0.113281 802.957031 -0.113281 C 553.882812 -0.113281 377.65625 68.023438 279.144531 202.414062 C 146.726562 383.027344 199.957031 621.160156 215.324219 677.746094 L 57.414062 942.316406 C 40.894531 969.972656 37.863281 1003.152344 49.078125 1033.351562 C 60.257812 1063.515625 84.214844 1086.703125 114.777344 1096.863281 L 219.339844 1131.738281 L 261.625 1333.113281 C 274.46875 1394.289062 333.035156 1435.378906 394.988281 1427.183594 L 582.683594 1401.660156 L 582.683594 1570.09375 C 582.683594 1585.203125 594.914062 1597.429688 610.027344 1597.429688 C 625.140625 1597.429688 637.371094 1585.203125 637.371094 1570.09375 L 637.371094 1370.34375 C 637.371094 1362.433594 633.949219 1354.929688 628.035156 1349.746094 C 622.074219 1344.546875 614.179688 1342.140625 606.351562 1343.242188 L 387.621094 1372.984375 C 353.839844 1377.40625 322.125 1355.117188 315.144531 1321.902344 L 296.828125 1234.679688 C 347.554688 1231.917969 446.78125 1219.078125 547.5625 1163.207031 C 560.761719 1155.871094 565.539062 1139.238281 558.21875 1126.011719 C 550.886719 1112.835938 534.25 1108.042969 521.015625 1115.375 C 424.195312 1169.066406 326.78125 1178.871094 285.445312 1180.496094 L 269.640625 1105.164062 C 267.640625 1095.628906 260.746094 1087.921875 251.527344 1084.855469 L 132.074219 1045.019531 C 117.335938 1040.074219 105.78125 1028.894531 100.359375 1014.3125 C 94.9375 999.730469 96.394531 983.691406 104.355469 970.347656 L 268.351562 695.597656 C 272.367188 688.890625 273.296875 680.792969 270.976562 673.375 C 270.164062 670.785156 191.707031 413.820312 323.445312 234.460938 C 407.628906 119.863281 559.660156 59.503906 775.597656 54.863281 L 775.597656 1570.09375 C 775.597656 1585.203125 787.847656 1597.429688 802.957031 1597.429688 C 818.070312 1597.429688 830.300781 1585.203125 830.300781 1570.09375 L 830.300781 54.863281 C 1046.222656 59.503906 1198.253906 119.863281 1282.417969 234.460938 C 1414.191406 413.820312 1335.734375 670.785156 1334.921875 673.375 C 1332.601562 680.792969 1333.550781 688.890625 1337.546875 695.597656 L 1501.523438 970.347656 C 1509.46875 983.691406 1510.945312 999.714844 1505.554688 1014.28125 C 1500.136719 1028.894531 1488.5625 1040.074219 1473.808594 1045.019531 L 1354.355469 1084.855469 C 1345.136719 1087.921875 1338.242188 1095.628906 1336.242188 1105.164062 L 1331.789062 1126.367188 C 1145.835938 1087.582031 1038.15625 1147.4375 1033.480469 1150.148438 C 1020.4375 1157.820312 1016.117188 1174.585938 1023.757812 1187.578125 C 1028.855469 1196.265625 1037.988281 1201.074219 1047.355469 1201.074219 C 1052.066406 1201.074219 1056.84375 1199.875 1061.199219 1197.300781 C 1062.164062 1196.722656 1154.984375 1145.203125 1320.589844 1179.734375 L 1290.738281 1321.902344 C 1283.722656 1355.117188 1252.09375 1377.488281 1218.277344 1372.984375 L 999.53125 1343.242188 C 991.6875 1342.140625 983.824219 1344.546875 977.84375 1349.746094 C 971.914062 1354.929688 968.511719 1362.433594 968.511719 1370.34375 L 968.511719 1570.09375 C 968.511719 1585.203125 980.726562 1597.429688 995.855469 1597.429688 C 1010.964844 1597.429688 1023.199219 1585.203125 1023.199219 1570.09375 L 1023.199219 1401.660156 L 1210.910156 1427.183594 C 1272.949219 1435.394531 1331.414062 1394.308594 1344.257812 1333.113281 L 1386.527344 1131.738281 L 1491.105469 1096.863281 C 1521.652344 1086.667969 1545.605469 1063.515625 1556.820312 1033.316406 C 1568.019531 1003.117188 1564.96875 969.941406 1548.46875 942.316406 " fill-opacity="1" fill-rule="nonzero"/></g><path fill="#100f0d" d="M 1045.121094 712.296875 C 1125.59375 658.691406 1227.121094 655.066406 1228.140625 655.035156 C 1243.21875 654.578125 1255.109375 641.976562 1254.667969 626.917969 C 1254.261719 611.8125 1242.335938 601.023438 1226.613281 600.363281 C 1221.835938 600.496094 1108.652344 604.257812 1014.777344 666.804688 C 1002.207031 675.1875 998.800781 692.140625 1007.203125 704.726562 C 1012.457031 712.617188 1021.148438 716.886719 1029.972656 716.886719 C 1035.191406 716.886719 1040.445312 715.398438 1045.121094 712.296875 " fill-opacity="1" fill-rule="nonzero"/></svg>