<svg xmlns="http://www.w3.org/2000/svg" xmlns:xlink="http://www.w3.org/1999/xlink" width="1344" zoomAndPan="magnify" viewBox="0 0 1008 1007.999987" height="1344" preserveAspectRatio="xMidYMid meet" version="1.0"><path fill="#d8d8d8" d="M 923.789062 0 L 84.714844 0 C 38.324219 0 1.007812 37.820312 1.007812 83.707031 L 1.007812 924.292969 C 1.007812 970.683594 38.828125 1008 84.714844 1008 L 923.285156 1008 C 969.675781 1008 1006.992188 970.179688 1006.992188 924.292969 L 1006.992188 83.707031 C 1007.496094 37.820312 970.179688 0 923.789062 0 Z M 299.023438 831.511719 L 150.265625 831.511719 L 150.265625 384.746094 L 299.023438 384.746094 Z M 224.390625 330.789062 C 177.496094 330.789062 139.679688 292.96875 139.679688 246.074219 C 139.679688 199.179688 177.496094 161.359375 224.390625 161.359375 C 271.289062 161.359375 309.105469 199.179688 309.105469 246.074219 C 309.105469 292.96875 271.289062 330.789062 224.390625 330.789062 Z M 858.742188 831.511719 L 709.484375 831.511719 L 705.953125 566.273438 C 705.953125 566.273438 709.484375 495.679688 632.332031 496.183594 C 555.179688 496.6875 544.59375 566.273438 544.59375 566.273438 L 544.59375 831.511719 L 394.324219 831.511719 L 394.324219 384.746094 L 538.542969 384.746094 L 538.542969 446.261719 C 538.542969 446.261719 544.59375 426.09375 577.871094 402.394531 C 611.152344 378.691406 666.117188 373.652344 689.816406 374.660156 C 713.515625 375.667969 745.789062 371.632812 799.742188 408.949219 C 857.734375 448.785156 859.246094 553.164062 859.246094 553.164062 Z M 858.742188 831.511719 " fill-opacity="1" fill-rule="nonzero"/></svg>