<svg xmlns="http://www.w3.org/2000/svg" xmlns:xlink="http://www.w3.org/1999/xlink" width="1344" zoomAndPan="magnify" viewBox="0 0 1008 1007.999987" height="1344" preserveAspectRatio="xMidYMid meet" version="1.0"><path fill="#dfa21f" d="M 508.933594 433.265625 L 836.339844 -49.960938 C 842.15625 -58.550781 839.917969 -70.226562 831.300781 -76.054688 C 822.761719 -81.839844 811.054688 -79.648438 805.199219 -71.03125 L 509.257812 365.734375 L 219.925781 -70.882812 C 214.140625 -79.53125 202.527344 -81.898438 193.851562 -76.175781 C 185.21875 -70.433594 182.847656 -58.773438 188.574219 -50.09375 L 508.933594 433.265625 " fill-opacity="1" fill-rule="nonzero"/><path fill="#dfa21f" d="M 183.476562 130.28125 C 177.617188 121.707031 165.914062 119.453125 157.339844 125.316406 C 148.753906 131.175781 146.53125 142.863281 152.359375 151.4375 L 393.523438 505.824219 L 6.375 1060.875 C 0.441406 1069.390625 2.511719 1081.109375 11.027344 1087.058594 C 14.320312 1089.339844 18.0625 1090.429688 21.773438 1090.429688 C 27.722656 1090.429688 33.554688 1087.625 37.207031 1082.394531 L 439.1875 506.078125 L 183.476562 130.28125 " fill-opacity="1" fill-rule="nonzero"/><path fill="#dfa21f" d="M 486.703125 595.003906 L 170.460938 1061.085938 C 164.617188 1069.675781 166.851562 1081.363281 175.4375 1087.195312 C 178.675781 1089.386719 182.34375 1090.429688 185.980469 1090.429688 C 192.003906 1090.429688 197.921875 1087.550781 201.542969 1082.183594 L 517.800781 616.117188 C 523.632812 607.53125 521.394531 595.824219 512.808594 590.007812 C 504.25 584.195312 492.546875 586.414062 486.703125 595.003906 " fill-opacity="1" fill-rule="nonzero"/><path fill="#dfa21f" d="M 704.429688 626.375 C 704.414062 626.363281 704.398438 626.363281 704.382812 626.347656 L 617.824219 499.246094 L 1001.171875 -49.738281 C 1007.105469 -58.238281 1005.035156 -69.972656 996.503906 -75.921875 C 987.992188 -81.839844 976.273438 -79.769531 970.324219 -71.253906 L 579.570312 488.347656 C 579.496094 488.453125 579.496094 488.570312 579.433594 488.675781 C 578.601562 489.914062 578.183594 491.328125 577.675781 492.714844 C 577.332031 493.625 576.78125 494.476562 576.601562 495.414062 C 576.347656 496.609375 576.542969 497.832031 576.542969 499.054688 C 576.542969 500.246094 576.332031 501.425781 576.558594 502.585938 C 576.722656 503.46875 577.242188 504.257812 577.542969 505.121094 C 578.046875 506.597656 578.480469 508.089844 579.34375 509.402344 C 579.40625 509.492188 579.40625 509.59375 579.464844 509.683594 L 673.34375 647.519531 C 673.34375 647.535156 673.34375 647.550781 673.359375 647.566406 L 969.445312 1082.230469 C 973.085938 1087.566406 978.988281 1090.429688 984.996094 1090.429688 C 988.632812 1090.429688 992.332031 1089.371094 995.566406 1087.164062 C 1004.152344 1081.335938 1006.359375 1069.628906 1000.515625 1061.039062 L 704.429688 626.375 " fill-opacity="1" fill-rule="nonzero"/></svg>