<svg xmlns="http://www.w3.org/2000/svg" xmlns:xlink="http://www.w3.org/1999/xlink" width="1344" zoomAndPan="magnify" viewBox="0 0 1008 712.499978" height="950" preserveAspectRatio="xMidYMid meet" version="1.0"><defs><clipPath id="2c85f1f18d"><path d="M 0.351562 61 L 1007.644531 61 L 1007.644531 651 L 0.351562 651 Z M 0.351562 61 " clip-rule="nonzero"/></clipPath><clipPath id="8f89b83270"><path d="M 125 0 L 883 0 L 883 712 L 125 712 Z M 125 0 " clip-rule="nonzero"/></clipPath></defs><g clip-path="url(#2c85f1f18d)"><path fill="#000000" d="M 40.675781 356.066406 C 40.675781 337.832031 48.566406 320.714844 62.886719 307.875 C 148.835938 230.808594 320.429688 101.511719 504.007812 101.511719 C 559.332031 101.511719 613.566406 113.261719 664.703125 131.785156 L 695.855469 100.601562 C 629.789062 74.515625 565.542969 61.34375 504.007812 61.34375 C 417.261719 61.34375 325.121094 87.507812 230.132812 139.113281 C 147.984375 183.742188 79.28125 239.25 36.117188 277.960938 C 13.179688 298.523438 0.550781 326.261719 0.550781 356.066406 C 0.550781 385.871094 13.1875 413.609375 36.117188 434.171875 C 78.578125 472.242188 145.742188 526.578125 226.117188 570.820312 L 255.753906 541.144531 C 175.246094 498.375 107.515625 444.273438 62.886719 404.257812 C 48.566406 391.414062 40.675781 374.300781 40.675781 356.066406 Z M 998.269531 313.550781 C 992.246094 300.3125 983.359375 288.242188 971.890625 277.960938 C 929.429688 239.890625 862.257812 185.554688 781.894531 141.308594 L 752.246094 170.988281 C 755.238281 172.574219 758.207031 174.175781 761.160156 175.789062 C 837.753906 217.75 902.140625 269.34375 945.113281 307.875 C 959.433594 320.714844 967.324219 337.832031 967.324219 356.066406 C 967.324219 374.300781 959.433594 391.414062 945.113281 404.257812 C 859.164062 481.324219 687.570312 610.621094 504.007812 610.621094 C 448.675781 610.621094 394.433594 598.871094 343.296875 580.347656 L 312.144531 611.53125 C 378.207031 637.617188 442.457031 650.789062 504.007812 650.789062 C 590.738281 650.789062 682.878906 624.625 777.867188 573.019531 C 860.015625 528.390625 928.71875 472.882812 971.890625 434.171875 C 994.820312 413.609375 1007.449219 385.871094 1007.449219 356.066406 C 1007.449219 341.167969 1004.296875 326.777344 998.269531 313.550781 " fill-opacity="1" fill-rule="nonzero"/></g><path fill="#000000" d="M 582.070312 214.503906 L 362.582031 434.210938 C 349.777344 411.042969 342.492188 384.410156 342.492188 356.066406 C 342.492188 266.777344 414.800781 194.402344 504.007812 194.402344 C 532.320312 194.402344 558.929688 201.695312 582.070312 214.503906 " fill-opacity="1" fill-rule="nonzero"/><path fill="#000000" d="M 665.507812 356.066406 C 665.507812 445.355469 593.199219 517.730469 504.007812 517.730469 C 475.6875 517.730469 449.078125 510.4375 425.941406 497.625 L 645.417969 277.921875 C 658.222656 301.089844 665.507812 327.722656 665.507812 356.066406 " fill-opacity="1" fill-rule="nonzero"/><g clip-path="url(#8f89b83270)"><path fill="#000000" d="M 133.121094 727.316406 C 123.617188 717.804688 123.617188 702.378906 133.121094 692.859375 L 840.460938 -15.183594 C 849.964844 -24.695312 865.375 -24.695312 874.878906 -15.183594 C 884.382812 -5.671875 884.382812 9.753906 874.878906 19.265625 L 167.539062 727.316406 C 158.039062 736.828125 142.625 736.828125 133.121094 727.316406 " fill-opacity="1" fill-rule="nonzero"/></g></svg>