<svg xmlns="http://www.w3.org/2000/svg" xmlns:xlink="http://www.w3.org/1999/xlink" width="1344" zoomAndPan="magnify" viewBox="0 0 1008 712.499978" height="950" preserveAspectRatio="xMidYMid meet" version="1.0"><defs><clipPath id="5d4c168f2d"><path d="M 344.972656 197.121094 L 663.027344 197.121094 L 663.027344 515.179688 L 344.972656 515.179688 Z M 344.972656 197.121094 " clip-rule="nonzero"/></clipPath><clipPath id="bbe276aaa4"><path d="M 504 197.121094 C 416.171875 197.121094 344.972656 268.320312 344.972656 356.148438 C 344.972656 443.980469 416.171875 515.179688 504 515.179688 C 591.828125 515.179688 663.027344 443.980469 663.027344 356.148438 C 663.027344 268.320312 591.828125 197.121094 504 197.121094 Z M 504 197.121094 " clip-rule="nonzero"/></clipPath></defs><path fill="#000000" d="M 504 166.246094 C 399.363281 166.246094 314.15625 251.414062 314.15625 356 C 314.15625 460.585938 399.363281 545.753906 504 545.753906 C 608.636719 545.753906 693.84375 460.585938 693.84375 356 C 693.84375 251.414062 608.636719 166.246094 504 166.246094 Z M 504 501.105469 C 423.929688 501.105469 358.824219 436.03125 358.824219 356 C 358.824219 275.96875 423.929688 210.894531 504 210.894531 C 584.070312 210.894531 649.175781 275.96875 649.175781 356 C 649.175781 436.03125 584.070312 501.105469 504 501.105469 Z M 526.335938 277.867188 C 526.335938 290.144531 516.285156 300.191406 504 300.191406 C 473.179688 300.191406 448.164062 325.191406 448.164062 356 C 448.164062 368.277344 438.113281 378.324219 425.828125 378.324219 C 413.542969 378.324219 403.492188 368.277344 403.492188 356 C 403.492188 300.636719 448.609375 255.542969 504 255.542969 C 516.285156 255.542969 526.335938 265.589844 526.335938 277.867188 Z M 1003.515625 344.839844 C 900.550781 165.800781 709.144531 54.628906 504 54.628906 C 298.855469 54.628906 107.449219 165.800781 4.484375 344.839844 C 0.578125 351.757812 0.578125 360.242188 4.484375 367.050781 C 107.449219 546.199219 298.855469 657.371094 504 657.371094 C 709.144531 657.371094 900.550781 546.199219 1003.515625 367.160156 C 1007.535156 360.242188 1007.535156 351.757812 1003.515625 344.839844 Z M 504 612.722656 C 319.070312 612.722656 146.199219 514.722656 49.714844 356 C 146.199219 197.277344 319.070312 99.277344 504 99.277344 C 688.929688 99.277344 861.800781 197.277344 958.285156 356 C 861.800781 514.722656 688.929688 612.722656 504 612.722656 Z M 504 612.722656 " fill-opacity="1" fill-rule="nonzero"/><g clip-path="url(#5d4c168f2d)"><g clip-path="url(#bbe276aaa4)"><path fill="#000000" d="M 344.972656 197.121094 L 663.027344 197.121094 L 663.027344 515.179688 L 344.972656 515.179688 Z M 344.972656 197.121094 " fill-opacity="1" fill-rule="nonzero"/></g></g></svg>